<svg id="Layer_1" data-name="Layer 1" xmlns="http://www.w3.org/2000/svg" viewBox="0 0 26.48 26.48"><defs><style>.cls-1{fill:#ab776a;}</style></defs><title>listing icon floorspace</title><path class="cls-1" d="M10.89,0H.55A.55.55,0,0,0,0,.55V9.24a.55.55,0,0,0,.55.55H7.91a.56.56,0,0,1,.56.55h0a.54.54,0,0,0,.55.55h6a.56.56,0,0,1,.55.56V17.4a.55.55,0,0,0,.55.55h8.69a.55.55,0,0,1,.55.56v1.57a.55.55,0,0,1-.55.55h-.28a.55.55,0,0,0-.55.55h0a.55.55,0,0,0,.55.55h.28a.55.55,0,0,1,.55.55v2.57a.55.55,0,0,1-.55.55H11a.55.55,0,0,1-.55-.55V19.33a.55.55,0,0,0-.55-.55H1.66a.56.56,0,0,1-.56-.55v-1.6a.56.56,0,0,1,.56-.55H7.92a.55.55,0,0,0,.55-.55V11.45a.56.56,0,0,0-.55-.56H.55a.56.56,0,0,0-.55.56V25.92a.56.56,0,0,0,.55.56H25.92a.56.56,0,0,0,.56-.56V.55A.56.56,0,0,0,25.92,0ZM24.82,7.06H16.13a.55.55,0,0,0-.55.55V9.24a.55.55,0,0,1-.55.55H11.45a.56.56,0,0,1-.56-.55V1.66a.56.56,0,0,1,.56-.56H15a.56.56,0,0,1,.55.56V4.72a.55.55,0,0,0,.55.55h0a.56.56,0,0,0,.56-.55V1.66a.55.55,0,0,1,.55-.56h7.58a.55.55,0,0,1,.55.56V6.51A.55.55,0,0,1,24.82,7.06Z"/></svg>