<?xml version="1.0" encoding="utf-8"?>
<!-- Generator: Adobe Illustrator 24.0.0, SVG Export Plug-In . SVG Version: 6.00 Build 0)  -->
<svg version="1.1" id="Layer_1" xmlns="http://www.w3.org/2000/svg" xmlns:xlink="http://www.w3.org/1999/xlink" x="0px" y="0px"
	 viewBox="0 0 100 100" style="enable-background:new 0 0 100 100;" xml:space="preserve">
<style type="text/css">
	.st0{fill:#AB776A;}
</style>
<title>icon hand house</title>
<path class="st0" d="M31.2,62.5H50v-25h18.7v25h18.8v-25H100L87.5,26V6.3H75v8.2L59.4,0L18.7,37.5h12.5V62.5z"/>
<path class="st0" d="M0,68.8h12.5v25H0V68.8z"/>
<path class="st0" d="M87.5,87.5h-25c-1.1-0.1-2.2-0.6-3.1-1.3L51.2,78l15.2-3c1.7-0.3,2.8-2,2.5-3.7c-0.3-1.5-1.6-2.5-3.1-2.5h-47
	v18.8h12.5v-0.2l11.2,9.8c2.1,1.7,4.8,2.7,7.6,2.8h12.5c2.3,0,4.6-0.3,6.9-0.9l19-4.7c3.3-0.8,3.8-2.6,3.6-3.9
	C91.7,89.1,90.8,87.5,87.5,87.5z"/>
</svg>
