<svg xmlns="http://www.w3.org/2000/svg" viewBox="0 0 32.46 26.38"><title>contact twitter logo</title><g id="Layer_2" data-name="Layer 2"><path d="M32.46,3.12a13.27,13.27,0,0,1-3.82,1A6.65,6.65,0,0,0,31.56.49,13.38,13.38,0,0,1,27.34,2.1,6.67,6.67,0,0,0,15.81,6.66,6.39,6.39,0,0,0,16,8.18a18.9,18.9,0,0,1-13.73-7,6.67,6.67,0,0,0,2.06,8.89,6.59,6.59,0,0,1-3-.83v.08a6.66,6.66,0,0,0,5.35,6.53,6.79,6.79,0,0,1-1.76.23A7.36,7.36,0,0,1,3.64,16a6.67,6.67,0,0,0,6.22,4.62,13.34,13.34,0,0,1-8.27,2.85A13.86,13.86,0,0,1,0,23.39a18.86,18.86,0,0,0,10.21,3c12.25,0,19-10.15,19-18.95,0-.29,0-.57,0-.86a13.45,13.45,0,0,0,3.32-3.45"/></g></svg>