<?xml version="1.0" encoding="utf-8"?>
<!-- Generator: Adobe Illustrator 24.0.0, SVG Export Plug-In . SVG Version: 6.00 Build 0)  -->
<svg version="1.1" id="Layer_1" xmlns="http://www.w3.org/2000/svg" xmlns:xlink="http://www.w3.org/1999/xlink" x="0px" y="0px"
	 viewBox="0 0 500 500" style="enable-background:new 0 0 500 500;" xml:space="preserve">
<style type="text/css">
	.st0{fill:#AB776A;}
</style>
<title>listing icon bath</title>
<path class="st0" d="M125.2,88.1c0-8.8,7.1-15.9,15.9-15.9c4.3-0.1,8.3,1.7,11.1,4.9l16.3,16.3c-9.9,17.8-7.9,39.8,5.2,55.5
	c1.5,1.6,4,1.7,5.6,0.2c0.1-0.1,0.1-0.1,0.2-0.2L243,85.4c1.3-1.7,1.3-4,0-5.7c-15.6-13-37.6-15.2-55.3-5.3l-16.5-16.5
	c-16.7-16.6-43.7-16.5-60.3,0.3c-7.9,7.9-12.3,18.7-12.3,29.9v141.8h26.5V88.1z"/>
<path class="st0" d="M225.8,191.6c3.1-3.4,3.1-8.6,0-11.9c-5.1-3-10.7-5.1-16.5-6.2c-0.7-0.3-1.5,0.1-1.7,0.7c-0.1,0.3-0.1,0.7,0,1
	c1.3,5.7,3.3,11.2,6,16.5c3.5,3,8.6,3,12.1,0H225.8z"/>
<path class="st0" d="M245.2,170.9c3.2-3.3,3.2-8.6,0-11.9c-5-2.8-10.4-4.8-15.9-6.1c-0.7-0.3-1.5,0.1-1.7,0.7c-0.1,0.3-0.1,0.7,0,1
	c1.4,5.7,3.5,11.2,6.2,16.3c2.6,3.2,7.3,3.6,10.5,0.9C244.6,171.6,244.9,171.2,245.2,170.9z"/>
<path class="st0" d="M247,135.1c1.4,5.8,3.6,11.4,6.4,16.7c3.5,3,8.6,3,12.1,0c3.1-3.4,3.1-8.6,0-11.9c-5.1-2.9-10.7-5-16.5-6.2
	c-0.7-0.3-1.5,0.1-1.7,0.7c-0.1,0.3-0.1,0.7,0,1L247,135.1z"/>
<path class="st0" d="M285.1,131.5c3.1-3.4,3.1-8.6,0-11.9c-5.1-2.9-10.7-5-16.5-6.1c-0.7-0.3-1.5,0.1-1.7,0.7c-0.1,0.3-0.1,0.7,0,1
	c1.4,5.7,3.4,11.2,6.2,16.3c2.9,3.3,7.9,3.6,11.2,0.7C284.7,132,284.9,131.7,285.1,131.5z"/>
<path class="st0" d="M199.1,142.6c-0.7-0.3-1.5,0.1-1.7,0.7c-0.1,0.3-0.1,0.7,0,1c1.4,5.7,3.5,11.3,6.2,16.5c3.4,3.1,8.6,3.1,11.9,0
	c3.3-3.3,3.3-8.6,0-11.9C210.4,146.1,204.9,144,199.1,142.6z"/>
<path class="st0" d="M235.1,140.8c3.1-3.4,3.1-8.6,0-11.9c-5.1-2.9-10.7-5-16.5-6.1c-0.7-0.3-1.5,0.1-1.7,0.7c-0.1,0.3-0.1,0.7,0,1
	c1.4,5.7,3.4,11.2,6.2,16.3c2.9,3.3,7.9,3.6,11.2,0.7C234.6,141.3,234.9,141,235.1,140.8z"/>
<path class="st0" d="M236.8,104.9c1.4,5.7,3.5,11.3,6.2,16.5c2.9,3.7,8.3,4.2,11.9,1.3c3.7-2.9,4.2-8.3,1.3-11.9
	c-0.4-0.5-0.8-0.9-1.3-1.3c-5.1-3-10.7-5.1-16.5-6.2C237.2,103.2,236.4,103.2,236.8,104.9z"/>
<path class="st0" d="M442.8,248.9H60.2c-10.5-0.9-19.8,6.9-20.6,17.5c-0.9,10.5,6.9,19.8,17.5,20.6c1.1,0.1,2.1,0.1,3.2,0l0,0
	l39.4,103.7c5.7,14.9,18.7,25.8,34.4,28.8l-3.6,9.3c-3.5,9.8,1.4,20.6,11.1,24.3c2.1,0.9,4.4,1.3,6.6,1.3c7.9,0,14.9-4.9,17.7-12.3
	l8.1-21.6H328l8.1,21.6c2.7,7.4,9.8,12.3,17.7,12.3c2.3,0,4.5-0.4,6.6-1.3c9.8-3.7,14.7-14.5,11.1-24.3l-3.6-9.3
	c15.8-3,29-13.8,34.9-28.8l39-103.1h0.9c10.5-0.9,18.3-10.1,17.5-20.6c-0.8-9.3-8.2-16.7-17.5-17.5V248.9z"/>
</svg>
