<?xml version="1.0" encoding="utf-8"?>
<!-- Generator: Adobe Illustrator 24.0.0, SVG Export Plug-In . SVG Version: 6.00 Build 0)  -->
<svg version="1.1" id="Layer_1" xmlns="http://www.w3.org/2000/svg" xmlns:xlink="http://www.w3.org/1999/xlink" x="0px" y="0px"
	 viewBox="0 0 30.3 30.3" style="enable-background:new 0 0 30.3 30.3;" xml:space="preserve">
<style type="text/css">
	.st0{fill:#AB776A;}
</style>
<title>listing icon garages parking</title>
<path class="st0" d="M28.3,5.2L15.4,0c-0.1,0-0.2,0-0.2,0c-0.1,0-0.1,0-0.2,0L2,5.2c-0.3,0.2-0.5,0.6-0.3,1L2,6.9
	C2.1,7.3,2.6,7.5,3,7.4l12.2-4.8l12.2,4.8c0.4,0.1,0.8-0.1,0.9-0.6l0.3-0.7C28.7,5.8,28.6,5.4,28.3,5.2L28.3,5.2z"/>
<path class="st0" d="M25.4,17.5l1-0.5c0.4-0.2,0.5-0.9,0.2-1.5s-0.9-0.9-1.3-0.7l-0.8,0.4v-2.7c0.1-1.8-1.2-3.4-3-3.5H8.7
	c-1.8,0.1-3.1,1.7-3,3.5v2.7l-0.8-0.4c-0.4-0.2-1,0.1-1.3,0.7c-0.3,0.6-0.2,1.3,0.2,1.5l1,0.5c-1,0.7-1.5,1.8-1.5,3v3.5
	c0,1.6,1,3,2.5,3.5v1.1c0,0.9,0.7,1.6,1.6,1.6s1.6-0.7,1.6-1.6c0,0,0,0,0,0v-0.9h12v0.9c0,0.9,0.7,1.6,1.6,1.6s1.6-0.7,1.6-1.6v-1
	c1.6-0.4,2.8-1.9,2.8-3.6v-3.6C26.9,19.3,26.3,18.2,25.4,17.5z M6.9,22.8c-1,0-1.8-0.8-1.8-1.8c0-1,0.8-1.8,1.8-1.8s1.8,0.8,1.8,1.8
	l0,0C8.7,21.9,7.9,22.8,6.9,22.8z M19.7,26.1h-8.3c-0.3,0-0.6-0.2-0.6-0.6c0-0.3,0.2-0.5,0.6-0.5h8.3c0.3,0,0.5,0.2,0.5,0.5
	C20.2,25.9,20,26.1,19.7,26.1z M7.6,16.7c-0.1-0.3-0.1-0.6-0.1-0.9v-2.7c0-1.6,0.5-2.9,2.4-2.9h10.5c2.2,0.1,2.4,1.3,2.4,2.9v2.7
	c0,0.3,0,0.6-0.1,0.9H7.6z M23.4,22.7c-1,0-1.8-0.8-1.8-1.8s0.8-1.8,1.8-1.8c1,0,1.8,0.8,1.8,1.8l0,0C25.3,21.9,24.5,22.7,23.4,22.7
	C23.4,22.8,23.4,22.8,23.4,22.7L23.4,22.7z"/>
</svg>
