<svg xmlns="http://www.w3.org/2000/svg" viewBox="0 0 18.21 18.21"><defs><style>.cls-1{fill:#ab776a;}</style></defs><title>Asset 2</title><g id="Layer_2" data-name="Layer 2"><g id="Layer_1-2" data-name="Layer 1"><path class="cls-1" d="M8.55,5.83a2.74,2.74,0,1,0,2.73,2.74A2.74,2.74,0,0,0,8.55,5.83Z"/><path class="cls-1" d="M9.11,0a9.11,9.11,0,1,0,9.1,9.11A9.11,9.11,0,0,0,9.11,0Zm4.43,13.78A.8.8,0,0,1,13,14a.82.82,0,0,1-.56-.21L10.7,12.06l-.17.1a4.21,4.21,0,0,1-2,.52,4.1,4.1,0,1,1,4.09-4.1A4,4,0,0,1,12,10.83l-.11.19,1.7,1.7a.82.82,0,0,1,.22.54.84.84,0,0,1-.24.52Z"/></g></g></svg>