<?xml version="1.0" encoding="utf-8"?>
<!-- Generator: Adobe Illustrator 24.0.0, SVG Export Plug-In . SVG Version: 6.00 Build 0)  -->
<svg version="1.1" id="Layer_1" xmlns="http://www.w3.org/2000/svg" xmlns:xlink="http://www.w3.org/1999/xlink" x="0px" y="0px"
	 viewBox="0 0 100 100" style="enable-background:new 0 0 100 100;" xml:space="preserve">
<style type="text/css">
	.st0{fill:#AB776A;}
	.st1{fill-rule:evenodd;clip-rule:evenodd;fill:#AB776A;}
</style>
<title>icon open door</title>
<path class="st0" d="M21.5,10.5L62.7,0v100l-41.2-9.1V10.5z"/>
<path class="st0" d="M62.7,4.9h15.9v85.3h-7.5v-79h-8.4"/>
<path class="st0" d="M57.5,48.9c0,1.7-1.4,3.1-3.1,3.1c-1.7,0-3.1-1.4-3.1-3.1c0-1.7,1.4-3.1,3.1-3.1C56.1,45.8,57.5,47.2,57.5,48.9
	"/>
<path class="st1" d="M71.1,11.2v79h7.3V4.9H62.7v6.3H71.1z"/>
<path class="st1" d="M62.7,100V0L21.5,10.5v80.4L62.7,100z M51.2,48.9c0-1.8,1.3-3.3,3.1-3.5c1.8,0.2,3.2,1.7,3.1,3.5
	c0,1.7-1.4,3.1-3.1,3.1C52.6,52.1,51.2,50.7,51.2,48.9z"/>
</svg>
