<svg id="Layer_1" data-name="Layer 1" xmlns="http://www.w3.org/2000/svg" viewBox="0 0 14.9 18.84"><defs><style>.cls-1{fill:#ab776a;}</style></defs><title>listing icon pdf download</title><path class="cls-1" d="M8.13,8.54a.28.28,0,0,0-.3-.3H7a.28.28,0,0,0-.3.3V10H8.13Z"/><path class="cls-1" d="M14.78,3.77,10.83.06C10.78,0,10.72,0,10.6,0H2.36A2.36,2.36,0,0,0,0,2.36V16.49a2.36,2.36,0,0,0,2.36,2.35H12.54a2.36,2.36,0,0,0,2.36-2.35V4c-.06,0-.06-.17-.12-.23ZM3.18,10H5.24V7.3H5.18A.31.31,0,0,1,5,6.77L7.24,4.53a.3.3,0,0,1,.41,0L10,6.77a.32.32,0,0,1-.23.53H9.66V10h2.06a.59.59,0,0,1,.59.59.6.6,0,0,1-.59.59H3.18a.64.64,0,0,1-.59-.59A.59.59,0,0,1,3.18,10Zm8.48,5.89H3.18a.59.59,0,0,1,0-1.18h8.48a.59.59,0,0,1,0,1.18Zm0-2.36H3.18a.59.59,0,0,1,0-1.18h8.48a.59.59,0,0,1,0,1.18ZM13,4.36H10.6a.28.28,0,0,1-.3-.3V1.88c0-.23.3-.41.47-.23l2.36,2.24a.27.27,0,0,1-.18.47Z"/></svg>