<?xml version="1.0" encoding="utf-8"?>
<!-- Generator: Adobe Illustrator 24.0.0, SVG Export Plug-In . SVG Version: 6.00 Build 0)  -->
<svg version="1.1" id="Layer_1" xmlns="http://www.w3.org/2000/svg" xmlns:xlink="http://www.w3.org/1999/xlink" x="0px" y="0px"
	 viewBox="0 0 34.8 34.8" style="enable-background:new 0 0 34.8 34.8;" xml:space="preserve">
<style type="text/css">
	.st0{fill:#AB776A;}
</style>
<title>listing icon bed</title>
<path class="st0" d="M13.2,21c0,2.1-1.7,3.9-3.9,3.9c-2.1,0-3.9-1.7-3.9-3.9c0-2.1,1.7-3.9,3.9-3.9c0,0,0,0,0,0
	C11.5,17.1,13.2,18.9,13.2,21"/>
<path class="st0" d="M27.9,17.1h-11c-0.9,0-1.7,0.7-1.7,1.7c0,0,0,0,0,0v7.4H3.6V15.1c0-0.6-0.4-1-1-1H1c-0.6,0-1,0.4-1,1v18.6
	c0,0.6,0.4,1,1,1h1.6c0.6,0,1-0.4,1-1v-3.9h27.7v3.8c0,0.6,0.4,1,1,1l0,0h1.6c0.6,0,1-0.4,1-1v-9.5C34.9,20.2,31.7,17.1,27.9,17.1
	L27.9,17.1z"/>
</svg>
