<?xml version="1.0" encoding="utf-8"?>
<!-- Generator: Adobe Illustrator 24.0.0, SVG Export Plug-In . SVG Version: 6.00 Build 0)  -->
<svg version="1.1" id="Layer_1" xmlns="http://www.w3.org/2000/svg" xmlns:xlink="http://www.w3.org/1999/xlink" x="0px" y="0px"
	 viewBox="0 0 100 100" style="enable-background:new 0 0 100 100;" xml:space="preserve">
<style type="text/css">
	.st0{fill:#AB776A;}
</style>
<title>icon key sold house sign</title>
<path class="st0" d="M22.8,81.1h72.7V22.8h-15v-11h18.7l0.1-7.4H4.4L0.8,4.3v91.4h7.3V11.9h29.8v11.1h-15V81.1z M75.5,60.1v-5.2
	h-3.8v5.2 M66.6,60.1v-5.2H56.2c-1.7,6.3-8.1,10.1-14.4,8.4c-6.3-1.7-10.1-8.1-8.4-14.4c1.7-6.3,8.1-10.1,14.4-8.4
	c4.1,1.1,7.3,4.3,8.4,8.4h26c1.7,0,3,1.4,3,3l0,0c0.1,1.6-1.2,3-2.8,3c0,0-0.1,0-0.1,0h-1.7V60 M73.1,22.8H45.2v-11h27.9V22.8z"/>
<path class="st0" d="M50.9,51.9c0,3.3-2.7,5.9-5.9,5.9c-3.3,0-5.9-2.7-5.9-5.9c0-3.3,2.7-5.9,5.9-5.9c0,0,0.1,0,0.1,0
	C48.3,46,50.9,48.7,50.9,51.9C50.9,51.9,50.9,51.9,50.9,51.9"/>
</svg>
