<svg id="Layer_1" data-name="Layer 1" xmlns="http://www.w3.org/2000/svg" viewBox="0 0 20.03 23.63"><defs><style>.cls-1{fill:#ab776a;}</style></defs><title>contact phone logo</title><path class="cls-1" d="M10.42,0H2.08A2,2,0,0,0,0,2.08V21.54a2.09,2.09,0,0,0,2.08,2.09h8.34a2.1,2.1,0,0,0,2.09-2.09V2.08A2,2,0,0,0,10.42,0ZM6.25,22.93a1.39,1.39,0,1,1,1.39-1.39A1.39,1.39,0,0,1,6.25,22.93Zm4.87-3.47H1.39v-16h9.73Z"/><path class="cls-1" d="M16.76,2.1a.68.68,0,0,1,.11-.93.64.64,0,0,1,.92.08,10.44,10.44,0,0,1,0,12.91.65.65,0,0,1-.92.08.7.7,0,0,1-.11-1,9.11,9.11,0,0,0,0-11.19Z"/><path class="cls-1" d="M14.94,4.29a.67.67,0,0,1,1-.85A6.87,6.87,0,0,1,16,12a.66.66,0,0,1-.93.08.67.67,0,0,1-.1-1,5.54,5.54,0,0,0,0-6.81Z"/></svg>