<?xml version="1.0" encoding="utf-8"?>
<!-- Generator: Adobe Illustrator 24.0.0, SVG Export Plug-In . SVG Version: 6.00 Build 0)  -->
<svg version="1.1" id="Layer_1" xmlns="http://www.w3.org/2000/svg" xmlns:xlink="http://www.w3.org/1999/xlink" x="0px" y="0px"
	 viewBox="0 0 100 100" style="enable-background:new 0 0 100 100;" xml:space="preserve">
<style type="text/css">
	.st0{fill:#AB776A;}
</style>
<title>icon sold listing sign</title>
<path class="st0" d="M85.6,10.1H34.1V0l0,0h-5.9l0,0v10.1H14.4l0,0l0,0l6.3,5.9h7.5v83.9l0,0l0,0h5.7l0,0l0,0V16.1h45.5l6.3-5.9l0,0
	l0,0L85.6,10.1z"/>
<path class="st0" d="M36.1,18.1v29.5h43.4V18.1H36.1z M56.1,36.9v4.6h-6.5V30.1l8.2-5.7l8.2,5.7v11.4h-6.4v-4.6L56.1,36.9z"/>
</svg>
