<svg xmlns="http://www.w3.org/2000/svg" viewBox="0 0 28.86 28.79"><title>contact skype logo</title><g id="Layer_2" data-name="Layer 2"><path d="M27.83,16.8c0,.05,0,.1,0,.15l0-.29a.61.61,0,0,1,.07.14A13.61,13.61,0,0,0,14.44.7a13.84,13.84,0,0,0-2.58.24h0L12,1,11.7,1l.15,0A8.07,8.07,0,0,0,1,12l0-.15.05.28L1,12a14.15,14.15,0,0,0-.2,2.35,13.53,13.53,0,0,0,1.07,5.3A13.67,13.67,0,0,0,4.8,24a13.63,13.63,0,0,0,12,3.78l-.14-.08.29.06-.15,0a8.12,8.12,0,0,0,4,1.05,8.05,8.05,0,0,0,7-12ZM14.49,22.67c-4.84,0-7-2.38-7-4.16A1.53,1.53,0,0,1,9.09,17c2.07,0,1.53,3,5.4,3,2,0,3.07-1.08,3.07-2.18,0-.66-.32-1.39-1.63-1.71L11.63,15c-3.47-.87-4.1-2.74-4.1-4.5,0-3.66,3.44-5,6.68-5,3,0,6.49,1.65,6.49,3.85A1.57,1.57,0,0,1,19,10.75c-1.77,0-1.45-2.44-5-2.44-1.76,0-2.74.8-2.74,1.94S12.6,11.76,13.82,12l3.18.71c3.49.78,4.38,2.82,4.38,4.74C21.38,20.45,19.1,22.67,14.49,22.67Zm2.19,5,.14.08.15,0ZM27.81,17c0-.05,0-.1,0-.15a.61.61,0,0,0-.07-.14ZM1,11.83,1,12l.08.13ZM12,1,11.85,1,11.7,1Z"/></g></svg>