<?xml version="1.0" encoding="utf-8"?>
<!-- Generator: Adobe Illustrator 24.0.0, SVG Export Plug-In . SVG Version: 6.00 Build 0)  -->
<svg version="1.1" id="Layer_1" xmlns="http://www.w3.org/2000/svg" xmlns:xlink="http://www.w3.org/1999/xlink" x="0px" y="0px"
	 viewBox="0 0 40.1 40.1" style="enable-background:new 0 0 40.1 40.1;" xml:space="preserve">
<style type="text/css">
	.st0{fill:#AB776A;}
</style>
<title>listing icon living</title>
<path class="st0" d="M16.8,29.6c-0.1,0-0.2,0-0.3,0h-1.4c-0.7,0-1.3,0.6-1.3,1.3v8.6c0,0.7,0.6,1.3,1.3,1.3h1.4
	c0.7,0,1.3-0.6,1.3-1.3v-8.6C17.8,30.3,17.4,29.7,16.8,29.6L16.8,29.6z"/>
<path class="st0" d="M38.8,29.6h-1.4c-0.1,0-0.2,0-0.3,0c-0.6,0.1-1,0.7-1,1.3v8.6c0,0.7,0.6,1.3,1.3,1.3h1.4c0.7,0,1.3-0.6,1.3-1.3
	v-8.6C40.1,30.1,39.5,29.6,38.8,29.6z"/>
<path class="st0" d="M19.4,40c0,0.2,0.1,0.4,0.2,0.6c0.1,0.1,0.4,0.2,0.6,0.2h13.6c0.2,0,0.4-0.1,0.6-0.2c0.2-0.1,0.2-0.3,0.2-0.6
	v-3.2H19.4V40z"/>
<path class="st0" d="M32.1,32H21.8c-1.3,0-2.4,1.1-2.4,2.4c0,0,0,0,0,0.1v0.8h15.2v-0.8C34.5,33.1,33.5,32,32.1,32
	C32.1,32,32.1,32,32.1,32L32.1,32z"/>
<path class="st0" d="M36.1,23.2c0-2.2-1.8-4-4-4H21.8c-2.2,0-4,1.8-4,4v5.1c0.1,0.1,0.2,0.1,0.3,0.2c0.1,0.1,0.2,0.2,0.3,0.2
	c0.1,0.1,0.2,0.2,0.3,0.3c0.1,0.1,0.1,0.2,0.2,0.3c0,0,0,0,0,0.1c0.1,0.1,0.1,0.2,0.2,0.4c0,0.1,0.1,0.2,0.1,0.4
	c0,0.1,0.1,0.3,0.1,0.4c0,0.1,0,0.3,0,0.4v0.3l0.2-0.2l0.3-0.2l0.3-0.1l0.3-0.1l0.3-0.1h0.1l0.2,0c0.3-0.1,0.5-0.1,0.8-0.1h10.4
	c0.2,0,0.5,0,0.7,0.1h0.2h0.1c0.1,0,0.2,0,0.3,0.1l0.3,0.1l0.3,0.1l0.3,0.2l0.3,0.2v-0.3c0-0.1,0-0.1,0-0.2c0-0.1,0-0.1,0-0.2
	c0-0.1,0-0.1,0-0.2l0-0.2c0-0.1,0.1-0.2,0.1-0.4c0.1-0.1,0.1-0.2,0.2-0.3c0,0,0,0,0-0.1c0.1-0.1,0.1-0.2,0.2-0.3
	c0.1-0.1,0.2-0.2,0.3-0.3l0.3-0.3c0.1-0.1,0.2-0.1,0.3-0.2L36.1,23.2z"/>
<path class="st0" d="M7.8,27.7H5.3c0.1,0,0.2,0,0.2,0c1.9-0.3,3.4-1.9,3.3-3.9c-0.9,0-1.8,0.3-2.5,0.9l0,0c0-1-0.4-2-1.2-2.8
	c-0.7,0.7-1.2,1.8-1.2,2.8c-0.7-0.6-1.6-0.9-2.4-0.9c0,1.9,1.4,3.6,3.3,3.8c0.1,0,0.2,0,0.3,0H2.8l1,3.3H0v9.5h1.1v-2.8h8.4v2.8h1.1
	V31H6.8L7.8,27.7z M6.7,34.9H3.9v-1.1h2.8V34.9z"/>
<path class="st0" d="M13.8,18.2h4.8l-0.8-8.8H8.2l-0.8,8.8h4.8v12.7c0-1.1,0.6-2.1,1.6-2.6V18.2z"/>
</svg>
