<?xml version="1.0" encoding="utf-8"?>
<!-- Generator: Adobe Illustrator 22.1.0, SVG Export Plug-In . SVG Version: 6.00 Build 0)  -->
<svg version="1.1" id="Layer_1" xmlns="http://www.w3.org/2000/svg" xmlns:xlink="http://www.w3.org/1999/xlink" x="0px" y="0px"
	 viewBox="0 0 90 75" style="enable-background:new 0 0 90 75;" xml:space="preserve">
<path d="M20.9,35.4c-3.2,0-5.8,2.6-5.8,5.8c0,3.2,2.6,5.8,5.8,5.8s5.8-2.6,5.8-5.8C26.7,38,24.1,35.4,20.9,35.4z M20.9,44.3
	c-1.7,0-3-1.4-3-3c0-1.7,1.4-3,3-3c1.7,0,3,1.4,3,3C23.9,42.9,22.6,44.3,20.9,44.3z"/>
<path d="M70.9,35.4c-3.2,0-5.8,2.6-5.8,5.8c0,3.2,2.6,5.8,5.8,5.8c3.2,0,5.8-2.6,5.8-5.8C76.7,38,74.1,35.4,70.9,35.4z M70.9,44.3
	c-1.7,0-3-1.4-3-3c0-1.7,1.4-3,3-3c1.7,0,3,1.4,3,3C73.9,42.9,72.6,44.3,70.9,44.3z"/>
<path d="M86.2,32.4c-1-4.4-16.9-7.8-16.9-7.8c-18.6-9-28.9-8.9-28.9-8.9c-12.9-1.3-33.5,7-33.5,7L5.4,32.8c-3.2,7.2,3.9,8.5,3.9,8.5
	h4.6c0,0,0-0.1,0-0.1c0-3.9,3.2-7.1,7.1-7.1s7.1,3.2,7.1,7.1c0,0,0,0.1,0,0.1h35.8c0-3.9,3.2-7.1,7.1-7.1s7.1,3.2,7.1,7.1h6.8
	C89.2,40.9,86.2,32.4,86.2,32.4z M38,25.8H21.5l3.2-6.3C29.8,17.8,38,18,38,18V25.8z M45,30.6h-2.9V30H45V30.6z M40.5,25.8V18
	c12.3,0.8,25,7.7,25,7.7H40.5z"/>
</svg>
