<?xml version="1.0" encoding="utf-8"?>
<!-- Generator: Adobe Illustrator 22.1.0, SVG Export Plug-In . SVG Version: 6.00 Build 0)  -->
<svg version="1.1" id="Layer_1" xmlns="http://www.w3.org/2000/svg" xmlns:xlink="http://www.w3.org/1999/xlink" x="0px" y="0px"
	 viewBox="0 0 100 125" style="enable-background:new 0 0 100 125;" xml:space="preserve">
<g>
	<rect x="88.8" y="70" width="6.2" height="5"/>
	<rect x="5" y="70" width="6.2" height="5"/>
	<polygon points="5,67.5 12.5,67.5 87.5,67.5 95,67.5 95,52.5 85,52.5 50,52.5 15,52.5 5,52.5 	"/>
	<path d="M17.5,25c-0.7,0-1.2,0.6-1.2,1.2V35v15h32.5V26.2c0-0.7-0.6-1.2-1.2-1.2H17.5z"/>
	<path d="M52.5,25c-0.7,0-1.2,0.6-1.2,1.2V50h32.5V35v-8.8c0-0.7-0.6-1.2-1.2-1.2H52.5z"/>
	<rect x="5" y="36.2" width="8.8" height="13.8"/>
	<rect x="86.2" y="36.2" width="8.8" height="13.8"/>
</g>
</svg>
