<svg xmlns="http://www.w3.org/2000/svg" xmlns:xlink="http://www.w3.org/1999/xlink" width="44" height="40" viewBox="0 0 44 40">
  <defs>
    <path id="hh4qa" d="M156.63 348.39h-39.82v-6.31c0-.5.4-.9.9-.9h38.02c.5 0 .9.4.9.9zm-1.8 3.59v-1.8h1.8v1.8zm-38.02 0v-1.8h1.81v1.8zm3.38-21.61h2.73c.1.27.22.53.4.76.52.66 1.3 1.04 2.14 1.04h6.74c1.17 0 2.17-.76 2.54-1.8h3.96a2.7 2.7 0 0 0 2.55 1.8h6.73a2.65 2.65 0 0 0 2.54-1.8h2.73l2.8 9.04c-.11-.02-.21-.04-.32-.04h-38.01c-.11 0-.22.02-.32.04zm12.91-4.5V329.47c0 .5-.4.9-.9.9h-6.73a.9.9 0 0 1-.88-1.12l.9-3.6a.9.9 0 0 1 .88-.68h5.83c.5 0 .9.4.9.9zm15.6 4.15a.9.9 0 0 1-.71.35h-6.74a.9.9 0 0 1-.9-.9v-3.6c0-.5.4-.9.9-.9h5.83a.9.9 0 0 1 .88.68l.9 3.6c.08.27.02.55-.16.77zm-28.27-11.36c0-1.49 1.22-2.7 2.72-2.7h27.15c1.5 0 2.71 1.21 2.71 2.7v9.9h-2.46l-.84-3.35a2.71 2.71 0 0 0-2.64-2.05h-5.82a2.71 2.71 0 0 0-2.72 2.7v2.7h-3.62v-2.7c0-1.48-1.22-2.7-2.71-2.7h-5.83c-1.25 0-2.33.85-2.64 2.05l-.84 3.36h-2.46zm37.94 22.82c.07-.18.1-.37.03-.57l-3.58-11.57v-10.68c0-2.48-2.03-4.5-4.52-4.5h-27.15a4.52 4.52 0 0 0-4.53 4.5v10.68l-3.58 11.57c-.06.2-.04.4.03.57-.04.2-.07.39-.07.6v10.8c0 .5.4.9.9.9h3.63c.5 0 .9-.4.9-.9v-2.7h32.58v2.7c0 .5.4.9.9.9h3.63c.5 0 .9-.4.9-.9v-10.8c0-.21-.02-.4-.07-.6z" />
  </defs>
  <g>
    <g transform="translate(-115 -314)">
      <use xlink:href="#hh4qa" />
    </g>
  </g>
</svg>