<svg xmlns="http://www.w3.org/2000/svg" xmlns:xlink="http://www.w3.org/1999/xlink" width="40" height="40" viewBox="0 0 40 40"><defs><path id="ebioa" d="M275.76 333.3h-22.54v-1.32h22.54a.66.66 0 1 1 0 1.32zm-10.6 9.24h-2.65c-5.23 0-9.52-3.5-9.92-7.92h22.49c-.4 4.42-4.69 7.92-9.92 7.92zm4.18 9.9h-11.02c1.47-2.92 1.53-5.5 1.53-8.87.87.19 1.76.29 2.65.29h2.66c.89 0 1.78-.1 2.65-.29 0 3.37.05 5.95 1.53 8.87zm-19.3 0c1.19-7.08-1.51-9.24-4.12-11.27-1.94-1.51-3.76-2.95-3.98-6.55h9.29c.3 3.96 3.22 7.26 7.25 8.58 0 3.72 0 6.24-1.7 9.24zm-9.43-34.32h8.64v15.18h-8.64zm-1.32-2.64h11.26v1.32H239.3zm11.94 5.94a.66.66 0 1 1 0 1.32h-.67v-1.32zm26.42 10.56a1.99 1.99 0 0 0-1.88-1.32h-23.22c-.36 0-.66.3-.66.66v1.98h-1.33v-9.24h.67c1.1 0 1.99-.89 1.99-1.98 0-1.1-.9-1.98-2-1.98h-.66v-1.98h.67c.36 0 .66-.3.66-.66v-2.64c0-.36-.3-.66-.66-.66h-12.6c-.37 0-.67.3-.67.66v2.64c0 .36.3.66.66.66h.67v15.84c0 .36.3.66.66.66h.66c.22 4.25 2.46 6.02 4.45 7.58 2.52 1.98 4.9 3.85 3.5 10.77a.66.66 0 0 0 .68.79h21.22a.66.66 0 0 0 .57-1c-1.9-3.14-1.9-5.7-1.9-9.56 4.08-1.32 7.02-4.7 7.3-8.7a1.98 1.98 0 0 0 1.22-2.52z"/></defs><g><g transform="translate(-238 -314)"><use xlink:href="#ebioa"/></g></g></svg>