<?xml version="1.0" encoding="utf-8"?>
<!-- Generator: Adobe Illustrator 22.1.0, SVG Export Plug-In . SVG Version: 6.00 Build 0)  -->
<svg version="1.1" id="Layer_1" xmlns="http://www.w3.org/2000/svg" xmlns:xlink="http://www.w3.org/1999/xlink" x="0px" y="0px"
	 viewBox="0 0 32 40" style="enable-background:new 0 0 32 40;" xml:space="preserve">
<style type="text/css">
	.st0{display:none;}
	.st1{display:inline;}
	.st2{clip-path:url(#SVGID_2_);}
	.st3{clip-path:url(#SVGID_4_);}
	.st4{display:inline;stroke:#1A1718;stroke-miterlimit:10;}
	.st5{fill:none;stroke:#1A1718;stroke-miterlimit:10;}
</style>
<g class="st0">
	<g class="st1">
		<path d="M26.1,32H5.9c-1.1,0-2-0.9-2-2V2c0-1.1,0.9-2,2-2h20.2c1.1,0,2,0.9,2,2v28C28.1,31.1,27.2,32,26.1,32z"/>
		<g>
			<g>
				<g>
					<defs>
						<polygon id="SVGID_1_" points="21.4,0 28.1,6.7 28.1,32 3.9,32 3.9,0 						"/>
					</defs>
					<clipPath id="SVGID_2_">
						<use xlink:href="#SVGID_1_"  style="overflow:visible;"/>
					</clipPath>
					<g class="st2">
						<rect x="3.5" y="17.7" width="25" height="9.3"/>
						<g>
							<rect x="3.5" y="17.4" width="25" height="0.5"/>
						</g>
						<g>
							<rect x="3.5" y="26.8" width="25" height="0.5"/>
						</g>
					</g>
				</g>
			</g>
		</g>
		<g>
			<g>
				<defs>
					<path id="SVGID_3_" d="M26.1,32H5.9c-1.1,0-2-0.9-2-2V2c0-1.1,0.9-2,2-2h20.2c1.1,0,2,0.9,2,2v28C28.1,31.1,27.2,32,26.1,32z"
						/>
				</defs>
				<clipPath id="SVGID_4_">
					<use xlink:href="#SVGID_3_"  style="overflow:visible;"/>
				</clipPath>
				<polyline class="st3" points="21.3,-0.2 28.4,-0.2 28.4,6.8 				"/>
			</g>
		</g>
		<polygon points="21,0 28.1,7.1 28.1,6.4 21.7,0 		"/>
	</g>
	<path class="st1" d="M9.6,24.8v-4.9h2h0.2c0.7,0,1.1,0.1,1.3,0.3c0.2,0.2,0.3,0.7,0.3,1.3c0,0.7-0.1,1.1-0.3,1.3
		c-0.2,0.2-0.7,0.3-1.3,0.3l-0.2,0h-1.1v1.6C10.6,24.8,9.6,24.8,9.6,24.8z M10.6,22.5h1.1c0.4,0,0.7,0,0.8-0.1s0.2-0.3,0.2-0.7
		c0-0.4,0-0.7-0.1-0.8c-0.1-0.1-0.3-0.1-0.7-0.1h-1.2L10.6,22.5L10.6,22.5z"/>
	<path class="st1" d="M14.1,24.8v-4.9h2.4c0.7,0,1.2,0.1,1.4,0.5c0.3,0.3,0.4,0.8,0.4,1.6c0,1.2-0.1,2-0.3,2.4s-0.7,0.5-1.5,0.5
		L14.1,24.8L14.1,24.8z M15.1,24h1.3c0.4,0,0.7-0.1,0.9-0.3c0.1-0.2,0.2-0.7,0.2-1.4c0-0.7-0.1-1.2-0.2-1.4s-0.4-0.3-0.8-0.3h-1.4
		V24z"/>
	<path class="st1" d="M20,20.7V22h2.2v0.8H20v2h-0.9v-4.9h3.3v0.8L20,20.7L20,20.7z"/>
</g>
<g class="st0">
	<rect x="-13.7" y="-23.3" class="st4" width="507.7" height="235.7"/>
</g>
<g class="st0">
	<path class="st1" d="M9.6,24.8v-4.9h2h0.2c0.7,0,1.1,0.1,1.3,0.3c0.2,0.2,0.3,0.7,0.3,1.3c0,0.7-0.1,1.1-0.3,1.3
		c-0.2,0.2-0.7,0.3-1.3,0.3l-0.2,0h-1.1v1.6C10.6,24.8,9.6,24.8,9.6,24.8z M10.6,22.5h1.1c0.4,0,0.7,0,0.8-0.1s0.2-0.3,0.2-0.7
		c0-0.4,0-0.7-0.1-0.8c-0.1-0.1-0.3-0.1-0.7-0.1h-1.2L10.6,22.5L10.6,22.5z"/>
	<path class="st1" d="M14.1,24.8v-4.9h2.4c0.7,0,1.2,0.1,1.4,0.5c0.3,0.3,0.4,0.8,0.4,1.6c0,1.2-0.1,2-0.3,2.4s-0.7,0.5-1.5,0.5
		L14.1,24.8L14.1,24.8z M15.1,24h1.3c0.4,0,0.7-0.1,0.9-0.3c0.1-0.2,0.2-0.7,0.2-1.4c0-0.7-0.1-1.2-0.2-1.4s-0.4-0.3-0.8-0.3h-1.4
		V24z"/>
	<path class="st1" d="M20,20.7V22h2.2v0.8H20v2h-0.9v-4.9h3.3v0.8L20,20.7L20,20.7z"/>
	<g class="st1">
		<g>
			<g>
				<path d="M26.1,1c0.6,0,1,0.4,1,1v28c0,0.6-0.4,1-1,1H5.9c-0.6,0-1-0.4-1-1V2c0-0.6,0.4-1,1-1H26.1 M26.1,0H5.9c-1.1,0-2,0.9-2,2
					v28c0,1.1,0.9,2,2,2h20.2c1.1,0,2-0.9,2-2V2C28.1,0.9,27.2,0,26.1,0L26.1,0z"/>
			</g>
		</g>
		<g>
			<line class="st5" x1="4.7" y1="7.3" x2="10.4" y2="7.3"/>
			<line class="st5" x1="4.7" y1="10.5" x2="12.9" y2="10.5"/>
		</g>
	</g>
</g>
<g class="st0">
	<g class="st1">
		<path d="M26.6,0H5.4c-1.1,0-2,0.9-2,2v4.7h6.3v2H3.4v2.7h9v2h-9V30c0,1.1,0.9,2,2,2h21.2c1.1,0,2-0.9,2-2V2
			C28.6,0.9,27.7,0,26.6,0z"/>
	</g>
	<path class="st1" d="M9.6,24.8v-4.9h2h0.2c0.7,0,1.1,0.1,1.3,0.3c0.2,0.2,0.3,0.7,0.3,1.3c0,0.7-0.1,1.1-0.3,1.3
		c-0.2,0.2-0.7,0.3-1.3,0.3l-0.2,0h-1.1v1.6C10.6,24.8,9.6,24.8,9.6,24.8z M10.6,22.5h1.1c0.4,0,0.7,0,0.8-0.1s0.2-0.3,0.2-0.7
		c0-0.4,0-0.7-0.1-0.8c-0.1-0.1-0.3-0.1-0.7-0.1h-1.2L10.6,22.5L10.6,22.5z"/>
	<path class="st1" d="M14.1,24.8v-4.9h2.4c0.7,0,1.2,0.1,1.4,0.5c0.3,0.3,0.4,0.8,0.4,1.6c0,1.2-0.1,2-0.3,2.4s-0.7,0.5-1.5,0.5
		L14.1,24.8L14.1,24.8z M15.1,24h1.3c0.4,0,0.7-0.1,0.9-0.3c0.1-0.2,0.2-0.7,0.2-1.4c0-0.7-0.1-1.2-0.2-1.4s-0.4-0.3-0.8-0.3h-1.4
		V24z"/>
	<path class="st1" d="M20,20.7V22h2.2v0.8H20v2h-0.9v-4.9h3.3v0.8L20,20.7L20,20.7z"/>
</g>
<g>
	<g>
		<path d="M10.6,27.2h1.1l0.2,0c0.7,0,1.1-0.1,1.3-0.3c0.2-0.2,0.3-0.7,0.3-1.3c0-0.7-0.1-1.1-0.3-1.3c-0.2-0.2-0.7-0.3-1.3-0.3
			h-0.2h-2v4.9h0.9V27.2z M10.6,24.7h1.2c0.4,0,0.6,0,0.7,0.1c0.1,0.1,0.1,0.4,0.1,0.8c0,0.4-0.1,0.6-0.2,0.7s-0.4,0.1-0.8,0.1h-1.1
			L10.6,24.7L10.6,24.7z"/>
		<path d="M18.1,28.3c0.2-0.4,0.3-1.1,0.3-2.4c0-0.8-0.1-1.3-0.4-1.6c-0.3-0.3-0.8-0.5-1.4-0.5h-2.4v4.9h2.4
			C17.4,28.8,17.9,28.7,18.1,28.3z M15.1,28v-3.4h1.4c0.4,0,0.7,0.1,0.8,0.3s0.2,0.7,0.2,1.4c0,0.7-0.1,1.2-0.2,1.4
			c-0.1,0.2-0.4,0.3-0.9,0.3H15.1z"/>
		<polygon points="20,26.8 22.2,26.8 22.2,26 20,26 20,24.7 22.4,24.7 22.4,23.9 19.1,23.9 19.1,28.8 20,28.8 		"/>
		<path d="M5.9,36h20.2c1.1,0,2-0.9,2-2V6c0-1.1-0.9-2-2-2H5.9c-1.1,0-2,0.9-2,2v28C3.9,35.1,4.8,36,5.9,36z M4.4,14.8h8.5v-0.5H4.4
			v-2.7h5.8v-0.5H4.4V6c0-0.8,0.7-1.5,1.5-1.5h20.2c0.8,0,1.5,0.7,1.5,1.5v28c0,0.8-0.7,1.5-1.5,1.5H5.9c-0.8,0-1.5-0.7-1.5-1.5
			V14.8z"/>
	</g>
</g>
<g class="st0">
	<g class="st1">
		<path d="M9.5,19.8V25h1.2v-1.6h1l0.2,0c0.7,0,1.2-0.1,1.4-0.4c0.2-0.2,0.4-0.7,0.4-1.4c0-0.7-0.1-1.2-0.4-1.4
			c-0.3-0.3-0.7-0.4-1.4-0.4C11.9,19.8,9.5,19.8,9.5,19.8z M12.5,21.6c0,0.4-0.1,0.6-0.1,0.6c-0.1,0-0.2,0.1-0.7,0.1h-0.9v-1.5h1
			c0.5,0,0.6,0.1,0.6,0.1C12.4,21,12.5,21.1,12.5,21.6z"/>
		<path d="M18.2,24.4c0.2-0.4,0.4-1.2,0.4-2.4c0-0.8-0.1-1.3-0.4-1.7c-0.3-0.3-0.8-0.5-1.5-0.5H14V25h2.6C17.4,25,18,24.8,18.2,24.4
			z M16.5,20.8c0.4,0,0.6,0.1,0.7,0.2c0.1,0.1,0.2,0.4,0.2,1.3c0,0.8-0.1,1.2-0.2,1.3c-0.1,0.2-0.4,0.3-0.8,0.3h-1.2v-3.1L16.5,20.8
			L16.5,20.8z"/>
		<polygon points="20.2,22.9 22.4,22.9 22.4,21.9 20.2,21.9 20.2,20.8 22.5,20.8 22.5,19.8 19,19.8 19,25 20.2,25 		"/>
		<path d="M5.4,32h21.2c1.1,0,2-0.9,2-2V2c0-1.1-0.9-2-2-2H5.4c-1.1,0-2,0.9-2,2v28C3.4,31.1,4.3,32,5.4,32z M26.6,2v28H5.4V13.4h7
			v-2h-7V9.2h4.3v-2H5.4V2H26.6z"/>
	</g>
</g>
</svg>
