<?xml version="1.0" encoding="utf-8"?>
<!-- Generator: Adobe Illustrator 22.1.0, SVG Export Plug-In . SVG Version: 6.00 Build 0)  -->
<svg version="1.1" id="Layer_1" xmlns="http://www.w3.org/2000/svg" xmlns:xlink="http://www.w3.org/1999/xlink" x="0px" y="0px"
	 viewBox="0 0 2362 827" style="enable-background:new 0 0 2362 827;" xml:space="preserve">
<style type="text/css">
	.st0{fill:#B8A25F;}
</style>
<path id="Path_0" class="st0" d="M1078,55.5c9.1,0.3,16.3,1.1,22,2.5c4.7,1.2,11.7,3.6,15.5,5.3c3.8,1.8,9.9,5.2,13.5,7.6
	c3.6,2.4,10.2,8,14.6,12.4c4.5,4.4,10.7,12.1,14,17.1c3.2,4.9,8.2,13.9,11,20c2.8,6.1,6.8,16.2,8.8,22.5s4.7,16.2,6.1,22
	s3.4,16.1,4.5,23c1.1,6.9,2.4,17.9,3,24.5c0.6,6.6,1.5,21,2,32s0.8,22.9,0.5,26.5s-0.9,16.9-1.5,29.5c-0.6,13-2.6,35.4-4.5,51.5
	c-1.9,15.7-3.9,31.6-4.5,35.5s-4,24.1-7.6,45s-9.8,53.5-13.9,72.5c-4.1,19-7.3,34.9-7.2,35.3c0.1,0.4,2.5-6.1,5.1-14.5
	c2.7-8.4,9.9-29.9,16.1-47.8c6.2-17.9,13.8-39.5,17-48s10.8-28.3,17-44s15.5-38.2,20.8-50s13.2-28.9,17.7-38s11.2-21.7,14.8-28
	s10.2-16.9,14.6-23.4c4.5-6.6,11.5-15.3,15.6-19.4c4.6-4.6,9.8-8.5,13.5-10.4c3.9-1.9,8.3-3.2,12.5-3.6c4.7-0.4,7.7-0.2,11,1
	c2.8,1,6.2,3.4,9,6.4c2.4,2.6,5.8,7.7,7.4,11.3s3.5,9.4,4.3,13c0.9,4.2,1.4,13.5,1.4,26.5c0,11-0.7,29.9-1.5,42
	c-0.8,12.1-2.2,33.2-3,47s-2.1,32.6-2.8,42c-0.8,10.5-1.3,37.3-1.3,70c0,45.3,0.2,54.8,1.8,65.5c1,6.9,2.2,14.1,2.7,16s1.4,4.2,2,5
	c0.9,1.3,1.4,1,3.5-1.5c1.4-1.7,5.2-9.5,8.7-17.5c3.4-8,9-22.2,12.4-31.5c3.4-9.4,9.8-26.5,14.2-38s11.8-30.7,16.5-42.5
	s12.3-30.7,17-42c4.7-11.3,12.3-29,17-39.5s12.3-26.9,16.9-36.5c4.6-9.6,11.2-22.5,14.7-28.5s8.4-13.9,11.1-17.5s7-8.6,9.6-11.1
	c2.7-2.5,7.3-5.8,10.3-7.4c3-1.5,7.8-3,10.5-3.3c3.4-0.4,6.8,0.1,10.5,1.3c3.3,1.1,7.2,3.4,9.9,5.9c2.4,2.2,5.4,6.2,6.8,8.8
	s3.5,8.7,4.9,13.5c2,6.8,2.8,12.5,3.5,25.8c0.6,10.8,0.6,26.2-0.1,42.5c-0.5,14-1.5,32.2-2.1,40.5c-0.6,8.2-1.2,30.8-1.2,50
	c-0.1,31.4,0.1,36.8,2.2,52.5c1.3,9.6,3.2,21.8,4.4,27c1.1,5.2,3.6,14,5.5,19.5s5.1,13.2,7,17c1.9,3.8,5.6,10.2,8,14
	c2.5,3.8,7.5,9.9,11.1,13.5s9.3,7.9,12.6,9.7c3.3,1.7,8.9,3.9,12.5,4.8c5,1.3,9.3,1.6,18.5,1.2c10.5-0.4,13.4-0.9,23-4.2
	c6.1-2,14.5-5.6,18.8-7.9c4.3-2.3,12.6-7.8,18.5-12.2s15.4-12.7,21.2-18.5c5.8-5.8,15.9-17.3,22.5-25.5c7.8-9.8,13.6-16.1,16.9-18.3
	c2.8-1.8,6.1-3.3,7.5-3.3c1.4,0,4.2,1.1,6.4,2.3s4.5,3.5,5.2,5c0.8,1.5,1.4,4,1.4,5.5s-2.4,7.7-5.4,13.8s-5.9,13.4-6.5,16.2
	s-1.1,6.8-1.1,8.8c0,2.2,0.8,4.5,2.2,6.2c2.2,2.5,2.4,2.6,6.8,1.5c2.5-0.7,7.4-3.1,11-5.4s9.6-7.1,13.4-10.7
	c3.8-3.6,9.7-10.1,13.1-14.5c3.4-4.4,7.8-10.5,9.8-13.5c2-3,5.1-6.3,6.9-7.4c2.6-1.5,4.6-1.8,8.8-1.3c3.4,0.4,6.2,1.2,7.2,2.4
	c1,1,2.1,3.2,2.6,4.8c0.5,1.9,0.3,5.7-0.6,10.5c-0.8,4.1-1.5,9.8-1.5,12.5c-0.1,3.3,0.6,6.2,1.9,8.5c1.1,1.9,3.1,4.1,4.4,4.7
	c1.3,0.7,5,1.2,8.2,1.2c3.5,0,8-0.8,11.5-2.2c3.2-1.2,8.9-4.3,12.8-6.9c3.8-2.6,12-9.8,18.1-16.1s12.7-13.8,14.6-16.8
	s4.4-6.3,5.4-7.3s3.7-2,5.9-2.4c2.2-0.3,5.7-0.1,7.8,0.5c2.2,0.7,4.4,2.2,5.4,3.9c1.4,2.3,1.6,4.2,1,11.8c-0.4,5-1,11.7-1.9,21
	l8.8-9.5c4.8-5.2,12-12.7,15.9-16.6c5.7-5.7,8-7.3,12.1-8.4c3.9-1,5.8-1.1,8.8-0.2c2.1,0.6,4.7,2.4,5.8,3.9s2.5,4.4,3,6.5
	c0.6,2.2,0.7,10,0.2,18.5c-0.7,13.6-0.6,15,1.2,17.7c1.7,2.6,2.4,2.9,5.9,2.4c2.2-0.3,6.5-1.7,9.5-3.1c3.8-1.8,8.6-5.8,15.7-12.9
	c5.6-5.7,12.1-12.5,14.4-15.3c2.3-2.8,6.1-7.5,12.4-16l-0.2-8.8c-0.2-6.1,0.2-9.6,1.3-11.8c0.8-1.6,3.2-4.1,5.3-5.5
	c2.1-1.4,5.8-2.8,8.2-3.1c2.5-0.4,6.1-0.2,8.2,0.5c2.4,0.7,4.8,2.5,6.8,5.1c2.3,3,4.3,4.4,8.2,5.6c2.9,0.9,6.8,2.4,8.8,3.4
	c1.9,1,5.1,3.5,7,5.7s4.1,5.8,4.7,7.9c0.7,2.1,1.2,5.4,1.2,7.1c0,1.8-2.5,11.1-5.5,20.7c-3,9.6-5.5,19-5.5,20.8c0,1.9,0.8,4.2,2,5.5
	c1.6,1.7,3.1,2.2,6.8,2.3c3.7,0,6.2-0.8,11.2-3.8c3.6-2.1,11.1-8.3,16.9-13.8c5.7-5.5,14.2-14.7,18.9-20.5
	c4.6-5.8,11.1-15,14.3-20.5c3.2-5.5,7.8-12.5,10.2-15.6c2.4-3.1,6.6-7.5,9.4-9.8s7.2-5.3,10-6.7c3.9-2,5.8-2.4,8.5-1.8
	c1.9,0.4,4.7,1.5,6.2,2.6c1.6,1.1,3.2,3.5,3.8,5.6c0.6,2.1,0.8,5.1,0.4,6.8c-0.4,1.9-3.8,6-8.9,11c-5.6,5.5-9.2,10-11.4,14.2
	c-1.7,3.4-4,9.5-5.1,13.5c-1.2,4.2-2,10.3-2,14.5c0,4.7,0.7,9.2,2,12.8c1.2,3.2,3.1,6.3,4.8,7.6c1.5,1.1,3.9,2.3,5.2,2.6
	c1.4,0.3,4,0.3,5.8-0.1s4.9-2.1,6.9-3.9c2-1.8,4.2-4.4,4.9-5.8c0.7-1.4,1.5-4,1.9-5.8c0.6-2.9,0.1-3.8-4.2-8.5
	c-2.7-2.9-5.6-6.7-6.5-8.5s-1.9-5.2-2.3-7.5c-0.4-2.4-0.1-6.6,0.7-9.8c0.9-3.9,2.3-6.5,4.9-9c2-1.9,5.4-4.1,7.6-4.7s5.4-1.2,7-1.2
	c1.6,0,4.8,0.5,7,1.1s5.9,3,8.3,5.2c3.5,3.4,4.7,5.4,6.2,11.1c1.2,4.4,2.8,7.7,4.2,8.8c1.5,1.2,3.9,1.8,6.8,1.7
	c2.9,0,5.8-0.9,7.9-2.3c1.9-1.2,6.2-5.5,9.5-9.5c4.3-5.2,7.1-7.6,9.6-8.4c1.9-0.6,4.9-0.8,6.5-0.5c1.6,0.3,4,1.7,5.2,3.1
	c1.6,1.8,2.2,3.8,2.2,7c0,2.7-1,6.6-2.5,9.7c-1.4,2.9-4.6,8-7.3,11.2c-2.7,3.3-8.1,8.2-19.4,16l-25.3,0.6l-2,5.7
	c-1.1,3.1-3.6,8.2-5.6,11.2s-5.6,7.2-8,9.3s-6.9,5-9.9,6.6s-8.6,3.4-12.5,4.1c-5.4,1-8.6,1.1-14,0.2c-4.1-0.7-9.7-2.5-13.4-4.4
	c-4.8-2.4-7.4-4.6-10-8.3c-2-2.7-4.9-8.8-9.8-22l-7.9,7.4c-4.3,4.1-11.3,10.1-15.4,13.4c-4.1,3.3-10.6,7.5-14.5,9.4
	c-3.9,1.8-10.4,4-14.5,4.9c-4.6,1-9.5,1.4-12.8,1c-2.9-0.3-6.8-1.3-8.8-2.1s-5.6-3.4-8.1-5.8c-3.1-2.8-5.2-6.1-6.6-9.8
	c-1.1-3-2.3-8.7-2.6-12.5c-0.3-4,0-9.8,0.7-13.5c0.7-3.6,2.6-9.9,4.2-14c1.6-4.1,3.1-9.5,3.2-12c0.1-3.3-0.2-4.5-1.3-4.7
	c-0.9-0.1-8.6,8.3-19,20.9c-9.6,11.6-20.4,23.6-24,26.5s-9.9,7.4-14,9.8c-4.1,2.4-10.4,5.3-14,6.4c-4.1,1.3-9.3,2-14,2
	c-4.1,0-9.2-0.5-11.2-1c-2.1-0.5-5.6-2.7-7.9-4.7s-5-5.5-6.1-7.8s-2.5-7.1-4.2-17.6l-13,13.1c-9,9.1-14.1,13.4-16.5,14.2
	c-1.9,0.6-6.3,0.9-9.7,0.7c-5-0.3-6.7-0.9-8.8-2.9c-1.9-1.9-3-4.6-6-20.1l-7,5.6c-3.8,3.1-10.4,7.5-14.5,9.9
	c-4.1,2.4-9.8,5.2-12.5,6.3c-2.8,1.1-7.5,2.6-10.5,3.3c-3.2,0.7-9.3,1-14.5,0.8c-7.2-0.3-10.2-1-15.4-3.4c-3.6-1.6-7.9-4.6-9.8-6.7
	c-1.8-2.1-4.1-5.3-6.9-10.6l-6.8,6.2c-3.7,3.4-10.7,8.6-15.5,11.7c-4.8,3-11.2,6.3-14.2,7.4s-9.6,2.1-14.5,2.4
	c-8.2,0.5-9.5,0.3-14.8-2.1c-4-1.8-6.7-4-8.8-6.9c-1.7-2.3-3.8-6.3-6.4-13.5l-12,10.9c-6.6,6-16.1,13.8-21,17.3s-13.7,8.9-19.5,11.9
	s-14.3,6.8-19,8.4s-12.1,3.8-16.5,4.7c-5.1,1.1-12.6,1.7-20.5,1.7c-8,0-15.4-0.6-20.5-1.7c-4.4-0.9-11.2-2.9-15-4.4
	c-3.8-1.5-9.7-4.5-13-6.6c-3.3-2.2-10.1-8-15-13c-5-5-11.6-12.9-14.7-17.5c-3.1-4.7-7.4-12.3-9.6-17c-2.2-4.7-5.1-12.1-6.5-16.5
	c-1.4-4.4-3.9-13.2-5.6-19.5c-1.6-6.3-3.7-16.2-4.5-22s-2-15.7-2.6-22c-0.5-6.3-1-24.3-1-40s0.4-36.1,1-45.5c0.5-9.4,1.4-23.3,2-31
	c0.6-7.7,1.5-22.3,2.1-32.5c0.8-13,0.8-22,0-30.2c-0.6-6.5-1.5-13.7-2.1-16s-1.9-5-3-6c-1.9-1.7-2.1-1.6-5.8,1.6
	c-2.1,1.9-7.2,9.2-11.5,16.2s-11.8,21.4-16.7,31.9c-4.9,10.5-13.1,28.9-18.2,41c-5.1,12.1-13.5,32.4-18.6,45s-13.9,34.5-19.4,48.5
	c-5.5,14-13.5,34.5-17.9,45.5c-4.3,11-9.6,24.5-11.6,30c-2,5.5-7.3,17.2-11.8,26c-5.8,11.5-9.4,17.3-12.6,20.6
	c-2.9,2.9-6.6,5.4-10.3,6.8c-3.8,1.4-8,2.2-12.2,2.2c-4.4,0-7.7-0.6-10.2-1.9c-2.1-1-5.3-3.6-7.3-5.8c-1.9-2.1-4.8-6.6-6.4-9.9
	c-1.6-3.3-3.7-9.4-4.7-13.5c-1-4.1-2.6-13.8-3.4-21.5c-0.8-7.7-2-24.1-2.6-36.5c-0.8-16.2-0.7-33.4,0.1-61
	c0.6-21.2,1.8-46.6,2.6-56.5c0.8-9.9,2.8-39.1,4.6-65c2.3-34.9,2.9-50.1,2.4-59c-0.4-6.6-1.1-13-1.6-14.2c-0.6-1.5-1.6-2.2-3.1-2
	c-1.4,0.2-4.8,3.4-9.1,8.8c-3.8,4.7-10.3,14.1-14.4,21c-4.1,6.9-12.8,23.3-19.3,36.5c-6.5,13.2-16.1,33.7-21.3,45.5
	s-15.5,36.8-22.9,55.5c-7.4,18.7-16.2,41.4-19.6,50.5c-3.3,9.1-10.4,29.1-15.7,44.5c-5.3,15.4-13,38.3-17.2,51
	c-4.2,12.7-12.1,36-17.6,52c-5.5,16-11.2,31.5-12.8,34.5s-4.1,6.7-5.6,8.2c-1.6,1.5-4.4,3.6-6.3,4.8c-2.4,1.4-5.2,2.1-8.8,2.1
	c-2.9,0-6.5-0.6-8-1.4s-4.2-3-6-5s-3.7-5.3-4.2-7.4c-0.6-2.1-1-8-1-13.2c0-6.7,1.1-15.2,3.5-28.5c1.9-10.5,8.2-40.2,13.9-66
	c5.7-25.9,12.7-59.1,15.4-74c2.8-14.9,5.9-32.4,7-39s2.9-18.3,4.1-26c1.1-7.7,3.6-26.4,5.5-41.5c2.1-16.2,3.9-36.7,4.6-50
	c0.6-12.4,0.9-38,0.6-57c-0.3-28.4-0.8-37.1-2.6-49.5c-1.2-8.2-4.1-22.9-6.5-32.5c-2.5-9.9-6.3-22.3-9-28.5
	c-2.5-6.1-7.1-15.1-10.2-20c-3.2-5.2-8.4-11.8-12.3-15.5c-3.7-3.6-10.1-8.6-14.2-11.2c-4.1-2.6-10.4-5.5-14-6.4
	c-4.4-1.2-10.4-1.8-18.5-1.8c-9.8,0-14.1,0.5-23.5,2.7c-8.2,2-14.9,4.4-23.5,8.7c-6.6,3.2-16,8.5-21,11.6c-5,3.1-13.3,8.9-18.5,12.8
	c-5.2,3.9-16.6,14.1-25.4,22.6s-19.5,19.9-24,25.4c-4.5,5.4-11.8,14.9-16.3,21c-4.5,6.1-12.3,17.7-17.3,25.6c-5,8-12.2,20.8-16,28.5
	s-8.7,18.5-10.8,24s-5.3,14.3-7,19.5c-1.7,5.2-4,14.5-5.2,20.5c-1.2,6-2.4,16.4-2.7,23c-0.5,9.4-0.2,13.4,1.1,18.5
	c1,3.9,4.3,11,8.1,17.8c5.5,9.5,6.5,12,6.5,16c0,2.9-0.7,5.7-1.7,7.2c-1,1.4-2.6,3.3-3.8,4.2c-1.1,0.9-4.1,2.1-6.5,2.7
	c-2.5,0.6-6.3,0.7-8.5,0.4c-3.1-0.5-5.1-1.8-8.9-5.7c-2.8-2.9-6.5-8.5-8.8-13.1c-2.1-4.4-4.5-10.9-5.3-14.5c-0.8-3.6-2-8.8-2.6-11.5
	c-0.7-2.8-1.2-7.2-1.2-10c0-2.8,0.7-11.1,1.5-18.5c0.9-8,3.2-20.3,5.7-30c2.3-9.1,6.2-21.9,8.7-28.5c2.5-6.6,6.5-16.7,9-22.5
	c2.5-5.8,6.5-14.3,9-19s7.3-13.2,10.6-19s8.5-14.3,11.5-19s9.2-13.4,13.7-19.5c4.5-6.1,13.8-17.5,20.7-25.5s17.4-19.1,23.4-24.7
	c6-5.6,14.8-13.3,19.4-17.2s14.8-11,22.5-15.8c7.7-4.8,18.7-10.9,24.5-13.5s14.5-6.1,19.5-7.7s14.2-3.9,20.5-5.1
	C1062.1,55.4,1067.3,55.1,1078,55.5L1078,55.5z M710,229c3,0,7.8,0.8,10.5,1.7c2.8,1,6.8,3.5,9.1,5.8c2.4,2.3,5.1,6.5,6.5,10
	c2.3,5.6,2.4,7.2,2.4,24c0,12.1-0.6,21.8-1.8,29.5c-1,6.3-3.5,20.5-5.7,31.5c-2.2,11-6.7,30.1-10,42.5c-3.3,12.4-9.9,35.3-14.6,51
	s-12.7,39.8-17.8,53.5c-5.1,13.8-12.7,33.5-17,44s-12.5,28.9-18.5,41s-12.6,25.2-14.8,29s-7.5,12.8-19.5,33l3.2,8
	c1.7,4.4,4.8,10.5,6.7,13.5c2,3,5.8,7.8,8.7,10.5c2.8,2.8,8,6.5,11.6,8.2c3.6,1.8,8.5,3.5,11,3.8s7.2,0.1,10.5-0.5s8.5-2.1,11.5-3.4
	s8.2-4,11.5-6.2c3.3-2.2,10.8-8.7,16.6-14.5c5.8-5.8,14.3-15.3,18.9-21.1c4.7-5.9,9.7-13.6,11.5-17.5c1.8-3.9,4.5-8,6.1-9.3
	c1.6-1.3,4.5-2.5,6.4-2.8c1.9-0.3,4.6-0.1,6,0.5c1.4,0.6,3.6,2.2,5,3.7c1.8,1.9,2.6,4,2.9,7.8c0.3,3.8-0.5,7.8-2.8,15.2
	c-2.2,6.8-3.4,12.9-3.8,19c-0.3,5-0.2,11.7,0.2,15c0.6,4.3,1.4,6.6,3.1,8.2c1.3,1.2,3.6,2.3,5.1,2.3c1.5,0,5.9-1.5,9.8-3.4
	c4.5-2.2,9.5-5.8,14.1-10.3c3.9-3.8,12.7-13.8,19.5-22.3s15.8-19.1,20-23.5c4.2-4.4,10-9.6,13-11.5c3-1.9,8-4.3,11.2-5.2
	s8.1-1.8,11-1.8c2.9,0,7.3,0.7,9.8,1.5s6.3,3,8.5,4.8c2.2,1.8,4.8,5.2,5.8,7.5c1,2.3,2,6.5,2.4,9.4c0.3,2.9,0.1,7.7-0.5,10.8
	c-0.6,3-2.5,7.6-4.1,10.2c-1.7,2.6-4.9,6.1-7.2,7.8c-3.3,2.4-5.3,3-9,3c-3.9,0-5.4-0.6-8.3-3.3c-3-2.7-3.7-4.1-4.1-8.2
	c-0.4-4.4-0.1-5.6,2.6-9.5c1.7-2.5,3.1-5.1,3.1-5.8c0-0.7-1.2-1.2-2.7-1.2c-2,0-4.3,1.6-8.8,6.2c-4.3,4.4-6.8,8-8.4,12.2
	c-1.5,3.8-2.5,9-2.8,14c-0.4,7-0.2,8.5,2,12.5c1.3,2.5,4.3,5.8,6.7,7.5c3.1,2.2,5.7,3.1,9.4,3.4c2.8,0.2,9-0.4,13.7-1.3
	c5.5-1,11.5-3.1,25.5-10.1l0.6-14c0.5-11.7,1-15.3,3.3-22c1.5-4.4,4.9-11.8,7.4-16.4c3.2-5.7,6.8-10.3,11.2-14.4
	c3.7-3.5,9.3-7.4,13-9.1c5.6-2.6,7.6-3.1,14.6-3.1c7.2,0,8.6,0.3,12.9,3c3.2,2,5.6,4.5,7.2,7.5c1.8,3.5,2.3,6.1,2.3,11.5
	c0,3.8-0.7,9.7-1.6,13c-0.8,3.3-2.7,8.5-4.1,11.5s-4.5,8.2-6.8,11.5s-8.6,10.6-13.9,16.2s-9.4,10.7-9.1,11.2c0.3,0.5,2.6,1.5,5.2,2
	c3.3,0.7,6.2,0.7,9.5,0c2.6-0.6,7.1-2,10-3.2c2.9-1.2,8.4-4.1,12.2-6.6s10.1-7.5,13.9-11.2c3.8-3.6,12.1-12.8,18.5-20.4
	c7.9-9.4,12.6-14.1,14.6-14.8c1.7-0.5,4-1,5.2-1c1.2,0,3.5,0.6,5,1.4s3.3,2.6,4,4s1.2,4.1,1.2,5.9s-0.9,5.3-2.1,7.8
	c-1.1,2.5-4.6,7.7-7.7,11.5s-10.5,12-16.3,18s-14.2,13.5-18.5,16.7s-11.7,7.7-16.3,10.2c-4.7,2.5-11.2,5.2-14.5,6.1
	c-3.4,0.9-10.2,1.6-15.8,1.6c-6.7,0-11.6-0.5-15.5-1.8c-3.2-1-8.5-3.5-17.8-9.3l-8.5,4c-4.7,2.2-12.8,5.2-18,6.6
	c-5.2,1.5-12.4,3.1-16,3.5c-3.6,0.5-9.8,0.5-14,0c-4.1-0.5-9.5-1.6-12-2.5s-6.7-3-9.4-4.8c-2.7-1.8-6.5-5-8.3-7.2s-4.8-7.1-9.8-17.6
	l-7,6.3c-3.8,3.5-9.2,8-12,10s-8.2,5.2-12,7c-6.7,3.2-7.5,3.3-19,3.3c-10.3,0-12.6-0.3-16-2.1c-2.2-1.2-5.7-4.1-7.8-6.5
	c-2.1-2.4-4.7-6.9-5.8-9.9c-1.1-3-2.3-7.4-2.7-9.8c-0.4-2.3-0.9-4.2-1.2-4.2c-0.3,0-3.8,3.2-7.8,7s-11.4,9.7-16.5,13.1
	s-12.3,7.6-16,9.5s-9.3,4.1-12.5,5c-3.4,0.9-10,1.6-16.2,1.6c-6.8,0-12.8-0.5-17-1.6c-3.6-0.9-9.4-3.2-13-5.1
	c-3.6-1.9-9-5.5-12.1-8.2c-3.1-2.6-7.5-7-9.9-9.8c-2.3-2.8-5.5-6.8-7-9s-3.9-6.2-5.2-9c-1.4-2.8-4.6-11.3-7.2-19s-5.3-18.3-6.2-23.5
	s-1.7-16.7-2.1-25.5c-0.4-10.7,0-23.8,1.1-39.5c0.9-12.9,2.3-29.3,3.2-36.5c0.8-7.1,2.4-18.9,3.5-26s3.8-21.8,6-32.5
	c2.2-10.7,6.4-29,9.4-40.5s8.8-31.8,13-45s10.6-31.4,14.2-40.5s9.5-22.8,13.3-30.5c3.7-7.7,11.3-20.9,16.9-29.2
	c5.6-8.4,12.3-17.3,14.9-19.9c2.6-2.6,6.8-6,9.2-7.7c2.5-1.7,7-4.1,10-5.3C702.3,229.9,706.6,229.1,710,229L710,229z M689.9,273.2
	c-4.5,6.7-9.3,14.7-10.9,17.8s-6.2,13.4-10.3,23c-4.2,9.6-10.7,26.5-14.5,37.5s-8.6,25.4-10.5,32c-2,6.6-5.1,17.9-7,25
	c-1.9,7.1-4.9,19.1-6.6,26.5s-5,23.2-7.1,35c-2.2,11.8-4.6,26.9-5.4,33.5c-0.8,6.6-2.4,21.7-3.5,33.5c-1.4,14-2,26.7-1.8,36.5
	l0.3,15c12.6-24.8,19.2-38.8,22.8-47c3.6-8.2,10.3-24.9,15-37c4.7-12.1,12.6-33.9,17.5-48.5c5-14.6,11.1-33,13.5-41
	s7.1-23.5,10.2-34.5s7.8-29,10.5-40s5.5-24,6.4-29c0.8-5,2.3-16,3.2-24.5c0.9-9,1.4-18.4,1-22.5c-0.3-3.9-1.2-7.6-1.8-8.3
	c-0.7-0.7-1.7-1.3-2.2-1.2s-3.1,1.4-5.8,3C699,260.3,696.2,263.7,689.9,273.2L689.9,273.2z M933,622.5c-1.5,3.3-3.2,7.1-3.6,8.5
	c-0.6,1.8-0.5,2.3,0.4,1.8c0.7-0.4,3.9-4.5,7.3-9c3.4-4.5,6.7-9.4,7.4-10.8c0.7-1.4,1.5-3.5,1.8-4.8s0.1-2.2-0.3-2.2
	c-0.4,0-2.9,2.4-5.5,5.2S934.6,619.2,933,622.5z M329.5,244.1c1.6,0,4.6,0.7,6.5,1.7c1.9,1,4.5,3.3,5.8,5.2c1.8,2.7,2.2,4.4,1.9,7.5
	c-0.3,2.5-5.6,14-27,56l22.6,34c12.4,18.7,28.8,44.1,36.5,56.5c7.7,12.4,20.3,33.1,28,46s17.5,29.8,21.8,37.5
	c4.3,7.7,8.5,14.7,9.4,15.6c1.5,1.5,2.4,1.5,10.1,0.2c4.7-0.8,15.2-2.3,23.5-3.4s24.5-2.9,36-4c11.6-1.1,29.8-2.3,40.5-2.6
	c17.6-0.5,19.8-0.4,23,1.3c1.9,1,4.5,3.4,5.8,5.3c1.4,2.1,2.3,5,2.3,7.2c0,2.1-0.8,5.4-1.8,7.3c-1.2,2.5-3.1,4.2-6.2,5.7
	c-3.8,1.8-7.4,2.2-24.5,2.9c-11,0.4-23.6,1.1-28,1.4c-4.4,0.3-18.8,1.9-32,3.5s-25.9,3.2-28.2,3.4s-4.2,0.9-4.2,1.5s2,4.3,4.3,8.2
	c2.4,4,7.7,13.3,11.9,20.8c4.1,7.4,14.3,26.5,22.5,42.5c8.2,16,20,37.9,26.1,48.8s13.1,24.4,15.5,30c2.4,5.6,5.1,12.7,6,15.8
	s1.6,6.8,1.6,8.5c0,1.7-0.9,4.8-2,7s-3.4,5-5.2,6.2c-1.8,1.2-5.5,2.8-8.3,3.4c-3.8,0.9-6,0.9-9.5,0c-2.5-0.7-5.9-2.4-7.5-4
	c-1.9-1.8-4.5-6.6-7.1-13.2c-2.3-5.7-6.1-16.3-8.4-23.4c-3.1-9.4-8.9-22.3-21-46.5c-9.2-18.4-22-43.2-28.4-55s-14.7-26.6-18.4-32.8
	c-3.8-6.4-7.3-11.3-8.2-11.3c-0.8,0-11.4,2-23.5,4.5c-12.1,2.5-36.9,7.4-55,10.9s-48.3,9.8-67,14c-18.7,4.2-46.6,10.7-62,14.6
	s-28.5,7.5-29.1,8.3c-0.6,0.7-5.1,9.8-9.9,20.3s-10.6,23.5-12.8,29s-6.8,17.9-10.2,27.5c-3.4,9.6-8.1,24-10.4,32s-5.5,18.8-7.2,24
	c-1.6,5.2-6,15.6-9.7,23c-4.9,9.9-8,14.9-11.7,18.7c-4.1,4.2-5.9,5.3-9.6,5.8c-2.5,0.4-6.1,0.3-8-0.1c-1.9-0.4-4.8-2-6.3-3.3
	c-1.6-1.4-3.5-4.4-4.4-6.6c-1.1-2.7-1.3-5.4-0.9-8.5c0.4-2.5,4.2-13.3,8.5-24s18.4-44.2,31.4-74.5s23.5-55.1,23.4-55.3
	s-5.6,1.3-12.2,3.2c-6.6,1.9-18.8,5.1-27,7.2s-17.6,3.7-20.7,3.8c-4.8,0.1-6.1-0.3-8.3-2.4c-1.4-1.4-3.2-4.5-4-7
	c-0.9-3.1-1.1-5.6-0.5-8c0.5-1.9,1.8-4.7,2.9-6.2c1.4-1.8,4.1-3.4,8.3-4.7c3.4-1.1,16.6-4.7,29.2-8.1c12.7-3.3,28.2-7.4,34.5-9.1
	c7.5-2,12.3-3.8,13.7-5.2c1.2-1.2,7.2-13.2,13.4-26.7c6.2-13.5,18.5-39.4,27.4-57.5c8.9-18.1,31.1-62.1,82.6-162.5l-13.7-17.2
	c-7.5-9.5-15.9-20.6-18.6-24.8c-2.7-4.1-5.3-9.1-5.8-11c-0.5-2.1-0.5-4.7,0.1-6.5c0.5-1.6,1.5-3.6,2.2-4.4c0.7-0.8,3.4-2.4,6-3.8
	c2.6-1.3,6.1-2.4,7.7-2.4s4.2,0.6,5.8,1.4c1.5,0.8,5,4,7.8,7.2c2.8,3.2,9.5,11.7,14.9,18.9c5.4,7.1,10.1,13.3,10.4,13.8
	s4.9-7.7,10.3-18s10.7-19.7,12-20.9c1.3-1.2,3.4-2.6,4.8-3.2S327.8,244.1,329.5,244.1L329.5,244.1z M262.5,416
	c-14.5,28.3-35.9,70.9-47.4,94.5c-11.6,23.7-21,43.6-21,44.2c0,1,0.9,1,3.7,0.3c2.1-0.5,13.2-3.3,24.8-6.1s33.4-7.8,48.5-11.1
	c15.1-3.3,42.8-9.1,61.5-12.9s41.2-8.3,50-9.9s16.5-3.4,17-3.9c0.6-0.6-1.2-4.7-5.4-11.7c-3.5-5.9-18.7-31.2-33.8-56.1
	s-34.8-56.8-43.9-71s-16.9-25.9-17.3-26c-0.4-0.1-2.9,3.9-5.5,9C291,360.3,277,387.7,262.5,416L262.5,416z M793.2,491
	c2.1,0,5.1,0.8,6.7,1.8c1.6,1,3.7,3,4.5,4.5s1.5,4.4,1.5,6.5c0,2.1-1.6,7.3-3.6,11.8c-2,4.4-4.4,9.8-5.4,12s-3.3,5.5-5.2,7.3
	c-2.4,2.4-4.5,3.5-7.8,3.9c-3.1,0.4-5.5,0.1-7.5-1c-1.7-0.8-4.1-2.7-5.5-4.2c-2.2-2.3-2.5-3.6-2.5-9.8c0-5.7,0.5-8.3,2.7-12.7
	c1.5-3,4.8-7.9,7.5-10.9s6.2-6.2,7.8-7.2C788.2,491.8,791.2,491,793.2,491L793.2,491z"/>
</svg>
