<?xml version="1.0" encoding="utf-8"?>
<!-- Generator: Adobe Illustrator 22.1.0, SVG Export Plug-In . SVG Version: 6.00 Build 0)  -->
<svg version="1.1" id="Layer_1" xmlns="http://www.w3.org/2000/svg" xmlns:xlink="http://www.w3.org/1999/xlink" x="0px" y="0px"
	 width="60px" height="56.4px" viewBox="0 0 60 56.4" style="enable-background:new 0 0 60 56.4;" xml:space="preserve">
<style type="text/css">
	.st0{fill:none;stroke:#000000;stroke-width:2;}
	.st1{fill:none;stroke:#000000;stroke-width:2;stroke-linecap:round;stroke-linejoin:round;}
	.st2{fill:none;stroke:#000000;stroke-width:2;stroke-linejoin:round;}
	.st3{fill:none;stroke:#000000;stroke-width:2;stroke-linecap:round;stroke-linejoin:round;stroke-dasharray:1.143,3.429;}
</style>
<title>43 -Shower- (Outline)</title>
<desc>Created with Sketch.</desc>
<g>
	<g transform="translate(-360.000000, -884.000000)">
		<g transform="translate(361.000000, 885.000000)">
			<path class="st0" d="M56,34H2c-1.1,0-2-0.9-2-2c0-1.1,0.9-2,2-2h54c1.1,0,2,0.9,2,2C58,33.1,57.1,34,56,34L56,34z"/>
			<path class="st1" d="M4,34h50l-2.9,11.5c-0.7,2.7-3.1,4.5-5.8,4.5H12.7c-2.8,0-5.2-1.9-5.8-4.5L4,34L4,34z"/>
			<path class="st1" d="M15,50l-2,4"/>
			<path class="st1" d="M44,50l2,4"/>
			<path class="st2" d="M18,26c-0.2,0-0.4,0-0.5,0.1c-0.7-1.2-2-2.1-3.5-2.1c-2,0-3.7,1.5-3.9,3.4C9.3,26.6,8.2,26,7,26
				c-2.2,0-4,1.8-4,4h19C22,27.8,20.2,26,18,26L18,26z"/>
			<path class="st2" d="M39,8c0-4.4,2.6-8,7-8l0,0c4.4,0,8,3.6,8,8v22"/>
			<path class="st1" d="M35,16v0.5"/>
			<path class="st3" d="M35,19.9v2.9"/>
			<path class="st1" d="M35,24.5V25"/>
			<path class="st1" d="M39,16v0.5"/>
			<path class="st3" d="M39,19.9v2.9"/>
			<path class="st1" d="M39,24.5V25"/>
			<path class="st1" d="M43,16v0.5"/>
			<path class="st3" d="M43,19.9v2.9"/>
			<path class="st1" d="M43,24.5V25"/>
			<path class="st2" d="M43,12c0-2.2-1.8-4-4-4s-4,1.8-4,4H43L43,12z"/>
		</g>
	</g>
</g>
</svg>
