<?xml version="1.0" encoding="utf-8"?>
<!-- Generator: Adobe Illustrator 22.1.0, SVG Export Plug-In . SVG Version: 6.00 Build 0)  -->
<svg version="1.1" id="Layer_1" xmlns="http://www.w3.org/2000/svg" xmlns:xlink="http://www.w3.org/1999/xlink" x="0px" y="0px"
	 viewBox="0 0 402.9 362.5" style="enable-background:new 0 0 402.9 362.5;" xml:space="preserve">
<path d="M380.2,310.3H22.8v-56.6c0-4.5,3.6-8.1,8.1-8.1h341.2c4.5,0,8.1,3.6,8.1,8.1V310.3z M380.2,342.7h-16.2v-16.2h16.2V342.7z
	 M39,342.7H22.8v-16.2H39V342.7L39,342.7z M53.4,148.7h24.2c0.9,2.7,1.8,4.5,3.6,7.2c4.5,6.3,11.7,9,18.9,9h60.2
	c10.8,0,19.8-7.2,22.4-16.2h35.9c3.6,9,12.6,16.2,22.4,16.2h60.2c7.2,0,14.4-3.6,18.9-9c1.8-1.8,2.7-4.5,3.6-7.2h24.2l25.1,80.8
	c-0.9,0-1.8,0-2.7,0H29.1c-0.9,0-1.8,0-2.7,0L53.4,148.7z M169.2,108.3v32.3l0,0l0,0c0,4.5-3.6,8.1-8.1,8.1h-61.1
	c-2.7,0-4.5-0.9-6.3-2.7c-1.8-1.8-1.8-4.5-1.8-7.2l8.1-32.3c0.9-3.6,4.5-6.3,8.1-6.3h52.1C165.6,100.2,169.2,103.8,169.2,108.3z
	 M309.3,146c-1.8,1.8-3.6,2.7-6.3,2.7h-60.2c-4.5,0-8.1-3.6-8.1-8.1v-32.3c0-4.5,3.6-8.1,8.1-8.1h52.1c3.6,0,7.2,2.7,8.1,6.3
	l8.1,32.3C311.1,141.5,311.1,144.2,309.3,146z M55.2,43.6c0-13.5,10.8-24.2,24.2-24.2h244.3c13.5,0,24.2,10.8,24.2,24.2v88.9h-22.4
	l-7.2-30.5c-2.7-10.8-12.6-18-23.3-18h-52.1c-13.5,0-24.2,10.8-24.2,24.2v24.2h-32.3v-24.2c0-13.5-10.8-24.2-24.2-24.2h-53
	c-10.8,0-20.7,7.2-23.3,18l-7.2,30.5H55.2V43.6z M396.4,248.4c0.9-1.8,0.9-3.6,0-5.4l-32.3-103.3V43.6c0-22.4-18-40.4-40.4-40.4
	H79.4C57,3.2,39,21.2,39,43.6v96.1L6.7,243.9c-0.9,1.8,0,3.6,0,5.4s-0.9,3.6-0.9,5.4v64.7v32.3c0,4.5,3.6,8.1,8.1,8.1h32.3
	c5.4-0.9,9-4.5,9-9v-24.2h292.7v24.2c0,4.5,3.6,8.1,8.1,8.1h32.3c4.5,0,8.1-3.6,8.1-8.1v-32.3v-64.7
	C396.4,252,396.4,250.2,396.4,248.4z"/>
</svg>
