<?xml version="1.0" encoding="utf-8"?>
<!-- Generator: Adobe Illustrator 22.1.0, SVG Export Plug-In . SVG Version: 6.00 Build 0)  -->
<svg version="1.1"
	 id="Layer_1" xmlns:cc="http://creativecommons.org/ns#" xmlns:dc="http://purl.org/dc/elements/1.1/" xmlns:inkscape="http://www.inkscape.org/namespaces/inkscape" xmlns:rdf="http://www.w3.org/1999/02/22-rdf-syntax-ns#" xmlns:sodipodi="http://sodipodi.sourceforge.net/DTD/sodipodi-0.dtd" xmlns:svg="http://www.w3.org/2000/svg"
	 xmlns="http://www.w3.org/2000/svg" xmlns:xlink="http://www.w3.org/1999/xlink" x="0px" y="0px" viewBox="0 0 535 398"
	 style="enable-background:new 0 0 535 398;" xml:space="preserve">
<style type="text/css">
	.st0{fill:#C2AF74;}
</style>
<g transform="translate(0,-952.36218)">
	<path class="st0" d="M105.4,958.1c-54.7,0-99.4,44.7-99.4,99.4V1244c0,54.7,44.7,99.4,99.4,99.4h323.1c54.7,0,99.4-44.7,99.4-99.4
		v-186.4c0-54.7-44.7-99.4-99.4-99.4H105.4L105.4,958.1z M105.4,983h323.1c41.6,0,74.6,32.9,74.6,74.6V1244
		c0,41.6-32.9,74.6-74.6,74.6H105.4c-41.6,0-74.6-32.9-74.6-74.6v-186.4C30.9,1015.9,63.8,983,105.4,983L105.4,983z M216,1057.5
		c-6.2,0.6-11.2,6.2-11.2,12.4v161.6c0,6.2,4.4,11.2,10.6,12.4c3.1,0.6,6.2,0,8.7-1.2l136.7-80.8c6.2-3.7,8.1-11.2,4.3-16.8
		c-1.2-1.9-2.5-3.7-4.3-4.4L224.1,1060C221.6,1057.5,219.1,1056.9,216,1057.5z M229.7,1091.7l99.4,59l-99.4,59V1091.7z"/>
</g>
</svg>
