<?xml version="1.0" encoding="utf-8"?>
<!-- Generator: Adobe Illustrator 22.1.0, SVG Export Plug-In . SVG Version: 6.00 Build 0)  -->
<svg version="1.1" id="Layer_1" xmlns="http://www.w3.org/2000/svg" xmlns:xlink="http://www.w3.org/1999/xlink" x="0px" y="0px"
	 viewBox="0 0 379 125" style="enable-background:new 0 0 379 125;" xml:space="preserve">
<style type="text/css">
	.st0{fill:none;}
</style>
<g>
	<g>
		<path class="st0" d="M112.6,31.8c2.1,0,17,0.8,36.9,1.7c-0.8-4.2-2.5-11.5-4.2-18.3c-10.6,1.3-21.7,3.4-32.7,6.4
			c-3.8,0.8-7.6,2.1-11.5,3.4C105,28.8,109.6,31.8,112.6,31.8z"/>
		<path class="st0" d="M158,33.9c31.4,1.7,71.3,3.8,93,4.7c-16.1-10.2-32.7-18.7-50.1-22.1c-10.2-2.1-21.2-3-33.1-2.5
			c-4.7,0-9.3,0.4-14.4,0.8C155.1,20.3,157.2,29.6,158,33.9z"/>
		<path class="st0" d="M338.9,61.1c4.2,0.4,15.3,2.1,23.4,4.2c0-0.4-0.4-0.8-0.4-1.3c-1.7-2.1-11.9-5.5-28.5-8.5L338.9,61.1z"/>
		<path class="st0" d="M31.9,55.5l14.4-8.9l-1.7-3c-5.5,1.3-11,1.7-16.6,2.1l-4.2,9.3L31.9,55.5z"/>
		<path class="st0" d="M336.4,69.1c-0.8,0-1.7-0.4-2.5-1.3l-16.1-15.3c-14.4-2.1-32.3-3.8-51.4-5.1l0,0c-1.7,0-146.9-7.2-154.6-7.6
			c-7.2-0.4-16.6-8.1-20.8-11.5c-2.5,0.8-5.5,2.1-8.1,3c-9.8,3.4-19.5,7.2-29.7,9.8l2.5,4.2c0.8,2.1,0.4,4.2-1.3,5.5L35.3,63.2
			C34.5,63.6,34,64,33.2,64c0,0,0,0-0.4,0L20,63.2l-5.9,13.6l5.5,16.1c5.9,0.4,20.8,1.7,36.5,2.5c0-0.8,0-2.1,0-3
			c0-15.3,12.3-27.6,27.6-27.6s27.6,12.3,27.6,27.6c0,1.7,0,3.4-0.4,5.1c35.7,0,128.7,0,161.8-0.4c-0.4-1.7-0.4-3-0.4-4.7
			c0-15.3,12.3-27.6,27.6-27.6c15.3,0,27.6,12.3,27.6,27.6c0,0.8,0,2.1,0,3c13.2-0.8,25.9-1.7,34.8-3.8c0.8-4.2,2.1-11,1.7-17.4
			C357.2,72.1,342.3,70,336.4,69.1z"/>
		<path d="M368.7,59.4c-1.7-2.5-5.1-8.5-47.1-14.4c-20.4-3-42.5-4.7-53.5-5.5c-21.2-14-42-26.8-65.4-31.4c-10.6-2.1-22.5-3-34.8-3
			c-18.3,0.4-37.4,3.4-57.8,8.5c-10.2,2.5-20.4,6.4-29.7,9.8c-18.3,6.8-35.7,13.2-55.2,13.6c-1.7,0-3,0.8-3.8,2.5L5.6,74.6
			c-0.4,0.8-0.4,2.1,0,3.4l7.2,20.4c0.4,1.7,2.1,2.5,3.8,3c1.3,0,21.7,1.7,42.5,3c4.2,9.3,14,16.1,25.1,16.1
			c10.2,0,19.5-5.9,24.2-14h1.3c13.6,0,28,0,42.5,0c50.5,0,102.8,0,124-0.4c4.7,8.5,14,14.4,24.2,14.4c11,0,20.4-6.4,25.1-15.7
			c15.7-0.8,31.8-2.1,42-4.7c1.3-0.4,2.5-1.7,3-3C370.4,93.3,375.9,70.8,368.7,59.4z M362.3,64.9c-8.1-2.1-19.1-3.4-23.4-4.2
			l-5.9-5.5c16.6,3,27.2,6.4,28.5,8.5C361.9,64,361.9,64.4,362.3,64.9z M167.8,13.9c11.9-0.4,22.9,0.4,33.1,2.5
			c17.4,3.4,33.5,11.9,50.1,22.1c-21.7-0.8-61.6-3-93-4.7c-0.8-4.2-3-13.6-4.2-19.5C158.5,13.9,163.1,13.9,167.8,13.9z M112.6,22
			c11-3,22.1-5.1,32.7-6.4c1.7,6.4,3.4,14,4.2,18.3c-19.5-0.8-34.4-1.7-36.9-1.7c-2.5,0-7.6-3-11.5-6.4
			C104.5,24.1,108.4,22.8,112.6,22z M28.1,45.3c5.5-0.4,11-1.3,16.6-2.1l1.7,3l-14.4,8.9l-8.1-0.4L28.1,45.3z M83.3,111.2
			c-10.6,0-19.1-8.5-19.1-19.1s8.5-19.1,19.1-19.1s19.1,8.5,19.1,19.1S93.9,111.2,83.3,111.2z M299.4,111.2
			c-10.6,0-19.1-8.5-19.1-19.1s8.5-19.1,19.1-19.1c10.6,0,19.1,8.5,19.1,19.1S310.1,111.2,299.4,111.2z M327,95.4c0-0.8,0-2.1,0-3
			c0-15.3-12.3-27.6-27.6-27.6c-15.3,0-27.6,12.3-27.6,27.6c0,1.7,0,3,0.4,4.7c-33.1,0-126.1,0-161.8,0c0.4-1.7,0.4-3.4,0.4-5.1
			c0-15.3-12.3-27.6-27.6-27.6S55.7,76.8,55.7,92c0,0.8,0,2.1,0,3c-15.7-0.8-30.6-2.1-36.5-2.5l-5.1-15.7l6.4-13.6L33.2,64
			c0,0,0,0,0.4,0c0.8,0,1.7-0.4,2.1-0.8l18.7-11.9c1.7-1.3,2.5-3.8,1.3-5.5l-2.5-4.2c10.2-2.5,20-6.4,29.7-9.8
			c2.5-0.8,5.5-2.1,8.1-3c4.2,3.8,13.6,11.5,20.8,11.5c7.2,0.4,152.4,7.6,154.6,7.6l0,0c19.5,0.8,36.9,3,51.4,5.1l16.1,15.3
			c0.8,0.4,1.3,0.8,2.5,1.3c5.5,0.8,20.8,3,27.2,5.1c0,5.9-0.8,12.7-1.7,17.4C352.9,93.7,340.2,94.6,327,95.4z"/>
	</g>
</g>
</svg>
