<?xml version="1.0" encoding="utf-8"?>
<!-- Generator: Adobe Illustrator 22.1.0, SVG Export Plug-In . SVG Version: 6.00 Build 0)  -->
<svg version="1.1" id="Layer_1" xmlns="http://www.w3.org/2000/svg" xmlns:xlink="http://www.w3.org/1999/xlink" x="0px" y="0px"
	 viewBox="0 0 468 650" style="enable-background:new 0 0 468 650;" xml:space="preserve">
<style type="text/css">
	.st0{fill:#C2AF74;}
</style>
<g>
	<path class="st0" d="M431.5,60.7c-56.2,0-90.1,0-104.5,0V41.2c0-17-13.1-30-30-30H170.3c-17,0-30,13.1-30,30v19.6
		c0,0-20.9,0-104.5,0c-17,0-30,13.1-30,30V608c0,17,13.1,30,30,30h394.4c17,0,30-13.1,30-30V90.8C461.5,73.8,448.5,60.7,431.5,60.7z
		 M129.8,86.9h24.8c7.8,0,13.1-5.2,13.1-13.1V41.2c0-2.6,1.3-3.9,3.9-3.9h126.7c2.6,0,3.9,1.3,3.9,3.9v32.6
		c0,7.8,5.2,13.1,13.1,13.1h23.5v37.9c0,5.2-3.9,9.1-9.1,9.1H138.9c-5.2,0-9.1-3.9-9.1-9.1V86.9z M435.4,608c0,2.6-1.3,3.9-3.9,3.9
		H37.1c-2.6,0-3.9-1.3-3.9-3.9V90.8c0-2.6,1.3-3.9,3.9-3.9h66.6v37.9c0,19.6,15.7,35.3,35.3,35.3h192c19.6,0,35.3-15.7,35.3-35.3
		V86.9h66.6c2.6,0,3.9,1.3,3.9,3.9L435.4,608L435.4,608z"/>
	<path class="st0" d="M366.2,340.2H102.4c-7.8,0-13.1,5.2-13.1,13.1s5.2,13.1,13.1,13.1h263.8c7.8,0,13.1-5.2,13.1-13.1
		S374,340.2,366.2,340.2z"/>
	<path class="st0" d="M366.2,433H102.4c-7.8,0-13.1,5.2-13.1,13.1c0,7.8,5.2,13.1,13.1,13.1h263.8c7.8,0,13.1-5.2,13.1-13.1
		C379.2,438.2,374,433,366.2,433z"/>
	<path class="st0" d="M366.2,525.7H102.4c-7.8,0-13.1,5.2-13.1,13.1c0,7.8,5.2,13.1,13.1,13.1h263.8c7.8,0,13.1-5.2,13.1-13.1
		C379.2,530.9,374,525.7,366.2,525.7z"/>
	<path class="st0" d="M197.7,297.1c3.9,6.5,14.4,7.8,19.6,2.6l73.1-73.1c5.2-5.2,5.2-13.1,0-18.3c-5.2-5.2-13.1-5.2-18.3,0
		l-61.4,61.4L199,250.1c-3.9-6.5-11.8-7.8-18.3-3.9c-6.5,3.9-7.8,11.8-3.9,18.3L197.7,297.1z"/>
</g>
</svg>
