<svg id="Layer_1" data-name="Layer 1" xmlns="http://www.w3.org/2000/svg" width="383.14" height="77.25" viewBox="0 0 383.14 77.25"><defs><style>.cls-1{fill:#c2af74;}.cls-2{fill:#424242;}</style></defs><title>faceb</title><path class="cls-1" d="M71.14-40H-5v-77.25H71.14ZM-1-44H67.14v-69.25H-1Z" transform="translate(5 117.25)"/><path class="cls-2" d="M44.27-87h-7.6v-5c0-1.9,1.2-2.3,2.1-2.3h5.4v-8.3h-7.4c-8.2,0-10.1,6.2-10.1,10.1V-87h-4.8v8.5h4.8v24.1h10v-24.1h6.8Z" transform="translate(5 117.25)"/><path class="cls-2" d="M100.56-78.83a7.68,7.68,0,0,1,7.86-7.93,7,7,0,0,1,6.1,3.24l-2,1a4.87,4.87,0,0,0-4.14-2.23c-3.1,0-5.49,2.44-5.49,5.89a5.55,5.55,0,0,0,5.49,5.89,4.87,4.87,0,0,0,4.14-2.23l2,1a7,7,0,0,1-6.1,3.24A7.68,7.68,0,0,1,100.56-78.83Z" transform="translate(5 117.25)"/><path class="cls-2" d="M124.27-78.32c0-1.84-.94-2.39-2.37-2.39a4,4,0,0,0-3.06,1.61v7.93h-2.07V-86.51h2.07v5.8a5.33,5.33,0,0,1,3.93-1.84c2.37,0,3.57,1.19,3.57,3.54v7.84h-2.07Z" transform="translate(5 117.25)"/><path class="cls-2" d="M134.53-82.55c3.33,0,5.4,2.59,5.4,6v.5h-8.78a3.64,3.64,0,0,0,3.77,3.45,4.74,4.74,0,0,0,3.29-1.31l1,1.36a6.24,6.24,0,0,1-4.46,1.65A5.55,5.55,0,0,1,129-76.74,5.58,5.58,0,0,1,134.53-82.55Zm-3.41,5h6.79a3.29,3.29,0,0,0-3.38-3.31A3.41,3.41,0,0,0,131.12-77.54Z" transform="translate(5 117.25)"/><path class="cls-2" d="M147.5-82.55a4.84,4.84,0,0,1,4.16,2l-1.38,1.27a3.09,3.09,0,0,0-2.69-1.38c-2.18,0-3.59,1.67-3.59,4s1.41,4,3.59,4a3.16,3.16,0,0,0,2.69-1.38l1.38,1.27a4.84,4.84,0,0,1-4.16,1.95,5.54,5.54,0,0,1-5.66-5.84A5.52,5.52,0,0,1,147.5-82.55Z" transform="translate(5 117.25)"/><path class="cls-2" d="M157.69-76,156-74.25v3.08h-2.07V-86.51H156v9.87l5.36-5.64H164l-4.78,5L164-71.17h-2.62Z" transform="translate(5 117.25)"/><path class="cls-2" d="M171.14-76.74a5.51,5.51,0,0,1,5.61-5.81,5.49,5.49,0,0,1,5.61,5.81,5.5,5.5,0,0,1-5.61,5.84A5.52,5.52,0,0,1,171.14-76.74Zm9.06,0c0-2.09-1.22-4-3.45-4s-3.45,1.88-3.45,4,1.25,4,3.45,4S180.2-74.62,180.2-76.74Z" transform="translate(5 117.25)"/><path class="cls-2" d="M192.49-72.69a5.52,5.52,0,0,1-4,1.79c-2.37,0-3.54-1.19-3.54-3.54v-7.84h2.07v7.15c0,1.84.92,2.39,2.34,2.39a4,4,0,0,0,3.09-1.56v-8h2.06v11.11h-2.06Z" transform="translate(5 117.25)"/><path class="cls-2" d="M197.84-82.28h2.08v1.7a4.72,4.72,0,0,1,3.63-2v2.09a3.74,3.74,0,0,0-.72-.07,3.9,3.9,0,0,0-2.91,1.61v7.73h-2.08Z" transform="translate(5 117.25)"/><path class="cls-2" d="M211.6-86.51h10.3v2h-8V-80h7.84v2H213.9v6.81h-2.3Z" transform="translate(5 117.25)"/><path class="cls-2" d="M231.19-72.39a4.74,4.74,0,0,1-3.63,1.49,3.69,3.69,0,0,1-3.86-3.68,3.59,3.59,0,0,1,3.86-3.63,4.63,4.63,0,0,1,3.63,1.47v-1.84c0-1.38-1.12-2.2-2.71-2.2a4.52,4.52,0,0,0-3.33,1.47l-.9-1.43a6.23,6.23,0,0,1,4.55-1.81c2.42,0,4.46,1,4.46,3.88v7.5h-2.07Zm0-3.11a3.53,3.53,0,0,0-2.85-1.26,2.29,2.29,0,0,0-2.55,2.21,2.29,2.29,0,0,0,2.55,2.21,3.51,3.51,0,0,0,2.85-1.27Z" transform="translate(5 117.25)"/><path class="cls-2" d="M241.54-82.55a4.86,4.86,0,0,1,4.17,2l-1.38,1.27a3.1,3.1,0,0,0-2.69-1.38c-2.19,0-3.59,1.67-3.59,4s1.4,4,3.59,4a3.17,3.17,0,0,0,2.69-1.38l1.38,1.27a4.86,4.86,0,0,1-4.17,1.95,5.54,5.54,0,0,1-5.65-5.84A5.52,5.52,0,0,1,241.54-82.55Z" transform="translate(5 117.25)"/><path class="cls-2" d="M252.86-82.55c3.33,0,5.4,2.59,5.4,6v.5h-8.78a3.64,3.64,0,0,0,3.77,3.45,4.74,4.74,0,0,0,3.29-1.31l1,1.36A6.23,6.23,0,0,1,253-70.9a5.55,5.55,0,0,1-5.75-5.84A5.58,5.58,0,0,1,252.86-82.55Zm-3.4,5h6.78a3.29,3.29,0,0,0-3.38-3.31A3.39,3.39,0,0,0,249.46-77.54Z" transform="translate(5 117.25)"/><path class="cls-2" d="M260.86-86.51h2.07v5.84a4.49,4.49,0,0,1,3.64-1.88c2.89,0,4.94,2.27,4.94,5.84s-2.07,5.81-4.94,5.81a4.55,4.55,0,0,1-3.64-1.86v1.59h-2.07ZM266-72.74c2.06,0,3.35-1.65,3.35-4s-1.29-4-3.35-4a3.83,3.83,0,0,0-3.09,1.65v4.71A3.8,3.8,0,0,0,266-72.74Z" transform="translate(5 117.25)"/><path class="cls-2" d="M273.47-76.74a5.51,5.51,0,0,1,5.61-5.81,5.5,5.5,0,0,1,5.61,5.81,5.51,5.51,0,0,1-5.61,5.84A5.52,5.52,0,0,1,273.47-76.74Zm9.06,0c0-2.09-1.22-4-3.45-4s-3.45,1.88-3.45,4,1.24,4,3.45,4S282.53-74.62,282.53-76.74Z" transform="translate(5 117.25)"/><path class="cls-2" d="M286.62-76.74a5.52,5.52,0,0,1,5.62-5.81,5.5,5.5,0,0,1,5.61,5.81,5.51,5.51,0,0,1-5.61,5.84A5.53,5.53,0,0,1,286.62-76.74Zm9.06,0c0-2.09-1.21-4-3.44-4s-3.45,1.88-3.45,4,1.24,4,3.45,4S295.68-74.62,295.68-76.74Z" transform="translate(5 117.25)"/><path class="cls-2" d="M304.22-76l-1.68,1.71v3.08h-2.07V-86.51h2.07v9.87l5.36-5.64h2.6l-4.79,5,4.83,6.07h-2.62Z" transform="translate(5 117.25)"/><path class="cls-2" d="M317.67-76.74a5.52,5.52,0,0,1,5.62-5.81,5.5,5.5,0,0,1,5.61,5.81,5.51,5.51,0,0,1-5.61,5.84A5.53,5.53,0,0,1,317.67-76.74Zm9.06,0c0-2.09-1.21-4-3.44-4s-3.45,1.88-3.45,4,1.24,4,3.45,4S326.73-74.62,326.73-76.74Z" transform="translate(5 117.25)"/><path class="cls-2" d="M339-72.69a5.5,5.5,0,0,1-4,1.79c-2.37,0-3.54-1.19-3.54-3.54v-7.84h2.07v7.15c0,1.84.92,2.39,2.35,2.39A4,4,0,0,0,339-74.3v-8h2.07v11.11H339Z" transform="translate(5 117.25)"/><path class="cls-2" d="M344.79-73.63v-6.83H343v-1.82h1.84v-3h2.07v3h2.25v1.82h-2.25v6.37c0,.78.37,1.35,1.08,1.35a1.61,1.61,0,0,0,1.13-.43l.53,1.56a2.92,2.92,0,0,1-2.16.71A2.41,2.41,0,0,1,344.79-73.63Z" transform="translate(5 117.25)"/><path class="cls-2" d="M352.47-73.79a1.45,1.45,0,0,1,1.45,1.42,1.47,1.47,0,0,1-1.45,1.43,1.43,1.43,0,0,1-1.4-1.43A1.41,1.41,0,0,1,352.47-73.79Zm-1.26-12.72h2.55l-.39,10.85H351.6Z" transform="translate(5 117.25)"/><path class="cls-1" d="M378.14-40h-311v-77.25h311Zm-307-4h303v-69.25h-303Z" transform="translate(5 117.25)"/></svg>