<?xml version="1.0" encoding="utf-8"?>
<!-- Generator: Adobe Illustrator 22.1.0, SVG Export Plug-In . SVG Version: 6.00 Build 0)  -->
<svg version="1.1" id="Layer_1" xmlns="http://www.w3.org/2000/svg" xmlns:xlink="http://www.w3.org/1999/xlink" x="0px" y="0px"
	 width="2842.5px" height="800px" viewBox="0 0 2842.5 800" style="enable-background:new 0 0 2842.5 800;" xml:space="preserve">
<style type="text/css">
	.st0{fill:#231F20;}
	.st1{fill:#C2AF74;}
</style>
<g>
	<path class="st0" d="M771.9,393.2v21.6c0,26-13,40.9-38.1,40.9c-25.1,0-38.1-14.9-38.1-40.9v-84.6c0-26,13-40.9,38.1-40.9
		c25.1,0,38.1,14.9,38.1,40.9V346h-24.2v-17.4c0-11.6-5.1-16-13.3-16c-8.1,0-13.3,4.4-13.3,16v87.9c0,11.6,5.1,15.8,13.3,15.8
		c8.1,0,13.3-4.2,13.3-15.8v-23.2H771.9z"/>
	<path class="st0" d="M813.1,453.9h-25.6V291.1h25.6v69.8h29.1v-69.8h26v162.8h-26v-69.8h-29.1V453.9z"/>
	<path class="st0" d="M912.4,359.7h35.1V383h-35.1v47.7h44.2v23.2h-69.8V291.1h69.8v23.2h-44.2V359.7z"/>
	<path class="st0" d="M1046.5,393.2v21.6c0,26-13,40.9-38.1,40.9c-25.1,0-38.1-14.9-38.1-40.9v-84.6c0-26,13-40.9,38.1-40.9
		c25.1,0,38.1,14.9,38.1,40.9V346h-24.2v-17.4c0-11.6-5.1-16-13.3-16c-8.1,0-13.3,4.4-13.3,16v87.9c0,11.6,5.1,15.8,13.3,15.8
		c8.1,0,13.3-4.2,13.3-15.8v-23.2H1046.5z"/>
	<path class="st0" d="M1095.6,389l-7.9,14.9v50h-25.6V291.1h25.6v70.4h0.5l33-70.4h25.6l-35.6,72.5l35.6,90.2h-26.3L1095.6,389z"/>
	<path class="st0" d="M1192.3,330.2c0-26,13.7-40.9,38.8-40.9c25.1,0,38.8,14.9,38.8,40.9v84.6c0,26-13.7,40.9-38.8,40.9
		c-25.1,0-38.8-14.9-38.8-40.9V330.2z M1217.9,416.5c0,11.6,5.1,16,13.3,16c8.1,0,13.3-4.4,13.3-16v-87.9c0-11.6-5.1-16-13.3-16
		c-8.1,0-13.3,4.4-13.3,16V416.5z"/>
	<path class="st0" d="M1310.9,291.1v125.6c0,11.6,5.1,15.8,13.3,15.8c8.1,0,13.3-4.2,13.3-15.8V291.1h24.2v123.9
		c0,26-13,40.9-38.1,40.9c-25.1,0-38.1-14.9-38.1-40.9V291.1H1310.9z"/>
	<path class="st0" d="M1432.5,453.9c-1.4-4.2-2.3-6.7-2.3-20v-25.6c0-15.1-5.1-20.7-16.7-20.7h-8.8v66.3H1379V291.1h38.6
		c26.5,0,37.9,12.3,37.9,37.4v12.8c0,16.7-5.3,27.4-16.7,32.8v0.5c12.8,5.3,17,17.4,17,34.4v25.1c0,7.9,0.2,13.7,2.8,19.8H1432.5z
		 M1404.6,314.4v50h10c9.5,0,15.3-4.2,15.3-17.2v-16c0-11.6-4-16.7-13-16.7H1404.6z"/>
	<path class="st0" d="M1534.1,363.4h33v23.2h-33v67.2h-25.6V291.1h67.7v23.2h-42.1V363.4z"/>
	<path class="st0" d="M1668.3,453.9h-25.8l-4.4-29.5h-31.4l-4.4,29.5h-23.5l26-162.8h37.4L1668.3,453.9z M1609.9,402.3h24.6
		l-12.1-82.3h-0.5L1609.9,402.3z"/>
	<path class="st0" d="M1754.1,393.2v21.6c0,26-13,40.9-38.1,40.9c-25.1,0-38.1-14.9-38.1-40.9v-84.6c0-26,13-40.9,38.1-40.9
		c25.1,0,38.1,14.9,38.1,40.9V346h-24.2v-17.4c0-11.6-5.1-16-13.3-16c-8.1,0-13.3,4.4-13.3,16v87.9c0,11.6,5.1,15.8,13.3,15.8
		c8.1,0,13.3-4.2,13.3-15.8v-23.2H1754.1z"/>
	<path class="st0" d="M1795.2,359.7h35.1V383h-35.1v47.7h44.2v23.2h-69.8V291.1h69.8v23.2h-44.2V359.7z"/>
	<path class="st0" d="M1931.7,328.6v5.8c0,16.7-5.1,27.2-16.5,32.6v0.5c13.7,5.3,19.1,17.4,19.1,34.6v13.3
		c0,25.1-13.3,38.6-38.8,38.6h-40.2V291.1h38.6C1920.3,291.1,1931.7,303.5,1931.7,328.6z M1880.8,314.4v43h10
		c9.5,0,15.3-4.2,15.3-17.2v-9.1c0-11.6-4-16.7-13-16.7H1880.8z M1880.8,380.6v50h14.6c8.6,0,13.3-4,13.3-16v-14.2
		c0-15.1-4.9-19.8-16.5-19.8H1880.8z"/>
	<path class="st0" d="M1947.5,330.2c0-26,13.7-40.9,38.8-40.9c25.1,0,38.8,14.9,38.8,40.9v84.6c0,26-13.7,40.9-38.8,40.9
		c-25.1,0-38.8-14.9-38.8-40.9V330.2z M1973.1,416.5c0,11.6,5.1,16,13.3,16c8.1,0,13.3-4.4,13.3-16v-87.9c0-11.6-5.1-16-13.3-16
		c-8.1,0-13.3,4.4-13.3,16V416.5z"/>
	<path class="st0" d="M2039.6,330.2c0-26,13.7-40.9,38.8-40.9c25.1,0,38.8,14.9,38.8,40.9v84.6c0,26-13.7,40.9-38.8,40.9
		c-25.1,0-38.8-14.9-38.8-40.9V330.2z M2065.2,416.5c0,11.6,5.1,16,13.3,16c8.1,0,13.3-4.4,13.3-16v-87.9c0-11.6-5.1-16-13.3-16
		c-8.1,0-13.3,4.4-13.3,16V416.5z"/>
	<path class="st0" d="M2167.3,389l-7.9,14.9v50h-25.6V291.1h25.6v70.4h0.5l33-70.4h25.6l-35.6,72.5l35.6,90.2h-26.3L2167.3,389z"/>
	<path class="st0" d="M2264,330.2c0-26,13.7-40.9,38.8-40.9c25.1,0,38.8,14.9,38.8,40.9v84.6c0,26-13.7,40.9-38.8,40.9
		c-25.1,0-38.8-14.9-38.8-40.9V330.2z M2289.6,416.5c0,11.6,5.1,16,13.3,16c8.1,0,13.3-4.4,13.3-16v-87.9c0-11.6-5.1-16-13.3-16
		c-8.1,0-13.3,4.4-13.3,16V416.5z"/>
	<path class="st0" d="M2382.6,291.1v125.6c0,11.6,5.1,15.8,13.3,15.8c8.1,0,13.3-4.2,13.3-15.8V291.1h24.2v123.9
		c0,26-13,40.9-38.1,40.9c-25.1,0-38.1-14.9-38.1-40.9V291.1H2382.6z"/>
	<path class="st0" d="M2443.3,291.1h79.1v23.2h-26.7v139.5H2470V314.4h-26.7V291.1z"/>
	<path class="st0" d="M2536.7,417.8l-3.3-58.8v-67.9h25.6V359l-3.3,58.8H2536.7z M2558.6,429.2v24.6h-24.6v-24.6H2558.6z"/>
</g>
<path class="st1" d="M595.4,106.9h-30H55.8v533h2633.6v-533H595.4z M85.8,136.9h479.6v473H85.8V136.9z M2659.4,609.8h-2064v-473
	h2064V609.8z"/>
<path class="st0" d="M347.4,513.9h-58.8V372.4h-29.3v-48.9h29.3v-29.3c0-39.7,16.5-63.4,63.6-63.4h39.3v48.9H367
	c-18.3,0-19.5,6.8-19.5,19.5v24.3h44.3l-5.2,48.9h-39v141.5"/>
</svg>
