<svg id="Layer_1" data-name="Layer 1" xmlns="http://www.w3.org/2000/svg" viewBox="0 0 21.53 13.65"><defs><style>.cls-1{fill:#ab776a;}</style></defs><title>contact email logo</title><path class="cls-1" d="M1.58,0A1.58,1.58,0,0,0,1,.11l9.23,7.82a.8.8,0,0,0,1.08,0L20.53.11A1.62,1.62,0,0,0,20,0ZM0,1.35a1.64,1.64,0,0,0,0,.23v10.5a1.59,1.59,0,0,0,.12.62L6.53,6.86Zm21.49,0L15,6.85,21.4,12.7a1.6,1.6,0,0,0,.13-.62V1.58a1.64,1.64,0,0,0,0-.23Zm-7.7,6.53L12.33,9.13a2.42,2.42,0,0,1-3.12,0L7.74,7.88,1.43,13.64H20.11Z"/></svg>