<svg id="Layer_1" data-name="Layer 1" xmlns="http://www.w3.org/2000/svg" viewBox="0 0 28.32 28.32"><defs><style>.cls-1{fill:#ab776a;}</style></defs><title>listing icon property lot size</title><path class="cls-1" d="M6.47,14l.66.8a.49.49,0,0,0,.69.07h0a.49.49,0,0,1,.8.39v5.31a.49.49,0,0,0,.49.49h10.1a.49.49,0,0,0,.49-.49V15.26a.49.49,0,0,1,.8-.39h0a.49.49,0,0,0,.69-.07l.66-.8a.5.5,0,0,0-.08-.7l-7.3-5.93a.51.51,0,0,0-.62,0L6.55,13.3A.5.5,0,0,0,6.47,14Z"/><path class="cls-1" d="M27.11,6.07a1.22,1.22,0,0,1-1.22-1.22V2.43H23.47a1.22,1.22,0,1,1,0-2.43h4.85V4.85A1.22,1.22,0,0,1,27.11,6.07Z"/><path class="cls-1" d="M17.26,2.43h-6.2a1.22,1.22,0,1,1,0-2.43h6.2a1.22,1.22,0,1,1,0,2.43Z"/><path class="cls-1" d="M1.21,6.07A1.22,1.22,0,0,1,0,4.85V0H4.85a1.22,1.22,0,1,1,0,2.43H2.43V4.85A1.22,1.22,0,0,1,1.21,6.07Z"/><path class="cls-1" d="M1.21,18.48A1.22,1.22,0,0,1,0,17.26v-6.2a1.22,1.22,0,1,1,2.43,0v6.2A1.22,1.22,0,0,1,1.21,18.48Z"/><path class="cls-1" d="M4.85,28.32H0V23.47a1.22,1.22,0,1,1,2.43,0v2.42H4.85a1.22,1.22,0,1,1,0,2.43Z"/><path class="cls-1" d="M17.26,28.32h-6.2a1.22,1.22,0,1,1,0-2.43h6.2a1.22,1.22,0,1,1,0,2.43Z"/><path class="cls-1" d="M28.32,28.32H23.47a1.22,1.22,0,1,1,0-2.43h2.42V23.47a1.22,1.22,0,1,1,2.43,0Z"/><path class="cls-1" d="M27.11,18.48a1.22,1.22,0,0,1-1.22-1.22v-6.2a1.22,1.22,0,1,1,2.43,0v6.2A1.22,1.22,0,0,1,27.11,18.48Z"/></svg>