<?xml version="1.0" encoding="utf-8"?>
<!-- Generator: Adobe Illustrator 22.1.0, SVG Export Plug-In . SVG Version: 6.00 Build 0)  -->
<svg version="1.1" id="Layer_1" xmlns="http://www.w3.org/2000/svg" xmlns:xlink="http://www.w3.org/1999/xlink" x="0px" y="0px"
	 width="2711.5px" height="629.9px" viewBox="0 0 2711.5 629.9" style="enable-background:new 0 0 2711.5 629.9;"
	 xml:space="preserve">
<style type="text/css">
	.st0{fill:#231F20;}
	.st1{fill:#C2AF74;}
</style>
<path class="st0" d="M416.5,387.2c0,15.1-12.3,27.4-27.4,27.4H213.6c-15.1,0-27.4-12.3-27.4-27.4V270.2h42.7c-1.1,2.6-2,5.3-2.8,8
	c-2,6.8-3,13.9-3,21.3c0,43.1,35.1,78.2,78.2,78.2c43.1,0,78.2-35.1,78.2-78.2c0-7.4-1.1-14.5-3-21.3c-0.8-2.7-1.7-5.4-2.8-8h42.7
	V387.2z M257.5,274.9c0.9-1.6,1.9-3.2,3-4.8c9.2-12.7,24-21,40.8-21c16.8,0,31.7,8.3,40.8,21c1.1,1.5,2.1,3.2,3,4.8
	c4.1,7.2,6.5,15.6,6.5,24.5c0,27.8-22.6,50.3-50.4,50.3c-27.8,0-50.3-22.6-50.3-50.3C251,290.6,253.4,282.2,257.5,274.9z M369,189.6
	l35.9-0.1h0.1c3.4,0,6.3,2.8,6.3,6.2v36.1c0,3.4-2.8,6.2-6.2,6.2l-35.9,0.1c-3.4,0-6.2-2.8-6.2-6.2l-0.1-36.1
	C362.8,192.4,365.5,189.6,369,189.6z M399.4,156.5h-196c-24.8,0-45,20.1-45,45v196c0,24.8,20.1,45,45,45h196c24.8,0,45-20.1,45-45
	v-196C444.3,176.6,424.2,156.5,399.4,156.5z"/>
<g>
	<path class="st0" d="M760.4,318.8v20.3c0,24.4-12.2,38.4-35.8,38.4c-23.6,0-35.8-14-35.8-38.4v-79.4c0-24.4,12.2-38.4,35.8-38.4
		c23.6,0,35.8,14,35.8,38.4v14.8h-22.7v-16.4c0-10.9-4.8-15.1-12.4-15.1c-7.6,0-12.4,4.1-12.4,15.1v82.5c0,10.9,4.8,14.8,12.4,14.8
		c7.6,0,12.4-3.9,12.4-14.8v-21.8H760.4z"/>
	<path class="st0" d="M799,375.8h-24V223h24v65.5h27.3V223h24.4v152.7h-24.4v-65.5H799V375.8z"/>
	<path class="st0" d="M892.2,287.4h32.9v21.8h-32.9v44.7h41.5v21.8h-65.5V223h65.5v21.8h-41.5V287.4z"/>
	<path class="st0" d="M1018.1,318.8v20.3c0,24.4-12.2,38.4-35.8,38.4c-23.6,0-35.8-14-35.8-38.4v-79.4c0-24.4,12.2-38.4,35.8-38.4
		c23.6,0,35.8,14,35.8,38.4v14.8h-22.7v-16.4c0-10.9-4.8-15.1-12.4-15.1c-7.6,0-12.4,4.1-12.4,15.1v82.5c0,10.9,4.8,14.8,12.4,14.8
		c7.6,0,12.4-3.9,12.4-14.8v-21.8H1018.1z"/>
	<path class="st0" d="M1064.1,314.9l-7.4,14v46.9h-24V223h24v66.1h0.4l31-66.1h24l-33.4,68.1l33.4,84.7h-24.7L1064.1,314.9z"/>
	<path class="st0" d="M1154.9,259.7c0-24.4,12.9-38.4,36.4-38.4c23.6,0,36.4,14,36.4,38.4v79.4c0,24.4-12.9,38.4-36.4,38.4
		c-23.6,0-36.4-14-36.4-38.4V259.7z M1178.9,340.6c0,10.9,4.8,15.1,12.4,15.1c7.6,0,12.4-4.1,12.4-15.1v-82.5
		c0-10.9-4.8-15.1-12.4-15.1c-7.6,0-12.4,4.1-12.4,15.1V340.6z"/>
	<path class="st0" d="M1266.2,223v117.8c0,10.9,4.8,14.8,12.4,14.8c7.6,0,12.4-3.9,12.4-14.8V223h22.7v116.3
		c0,24.4-12.2,38.4-35.8,38.4c-23.6,0-35.8-14-35.8-38.4V223H1266.2z"/>
	<path class="st0" d="M1380.3,375.8c-1.3-3.9-2.2-6.3-2.2-18.8v-24c0-14.2-4.8-19.4-15.7-19.4h-8.3v62.2h-24V223h36.2
		c24.9,0,35.6,11.6,35.6,35.1v12c0,15.7-5,25.7-15.7,30.8v0.4c12,5,15.9,16.4,15.9,32.3v23.6c0,7.4,0.2,12.9,2.6,18.5H1380.3z
		 M1354.1,244.8v46.9h9.4c8.9,0,14.4-3.9,14.4-16.1v-15.1c0-10.9-3.7-15.7-12.2-15.7H1354.1z"/>
	<path class="st0" d="M1451.6,223h24v152.7h-24V223z"/>
	<path class="st0" d="M1514.9,265.1h-0.4v110.6h-21.6V223h30.1l24.2,91.4h0.4V223h21.4v152.7h-24.7L1514.9,265.1z"/>
	<path class="st0" d="M1618.5,221.3c23.3,0,35.3,14,35.3,38.4v4.8h-22.7v-6.3c0-10.9-4.4-15.1-12-15.1c-7.6,0-12,4.1-12,15.1
		c0,11.1,4.8,19.4,20.5,33.2c20.1,17.7,26.4,30.3,26.4,47.8c0,24.4-12.2,38.4-35.8,38.4c-23.6,0-35.8-14-35.8-38.4v-9.4h22.7v10.9
		c0,10.9,4.8,14.8,12.4,14.8c7.6,0,12.4-3.9,12.4-14.8c0-11.1-4.8-19.4-20.5-33.2c-20.1-17.7-26.4-30.3-26.4-47.8
		C1583.2,235.2,1595.2,221.3,1618.5,221.3z"/>
	<path class="st0" d="M1660.8,223h74.2v21.8h-25.1v130.9h-24V244.8h-25.1V223z"/>
	<path class="st0" d="M1814.9,375.8h-24.2l-4.1-27.7h-29.5l-4.1,27.7h-22l24.4-152.7h35.1L1814.9,375.8z M1760.1,327.3h23.1
		l-11.3-77.2h-0.4L1760.1,327.3z"/>
	<path class="st0" d="M1861.8,290.7h33.6v48.4c0,24.4-12.2,38.4-35.8,38.4c-23.6,0-35.8-14-35.8-38.4v-79.4
		c0-24.4,12.2-38.4,35.8-38.4c23.6,0,35.8,14,35.8,38.4v14.8h-22.7v-16.4c0-10.9-4.8-15.1-12.4-15.1c-7.6,0-12.4,4.1-12.4,15.1v82.5
		c0,10.9,4.8,14.8,12.4,14.8c7.6,0,12.4-3.9,12.4-14.8v-28.1h-10.9V290.7z"/>
	<path class="st0" d="M1961.1,375.8c-1.3-3.9-2.2-6.3-2.2-18.8v-24c0-14.2-4.8-19.4-15.7-19.4h-8.3v62.2h-24V223h36.2
		c24.9,0,35.6,11.6,35.6,35.1v12c0,15.7-5,25.7-15.7,30.8v0.4c12,5,15.9,16.4,15.9,32.3v23.6c0,7.4,0.2,12.9,2.6,18.5H1961.1z
		 M1934.9,244.8v46.9h9.4c8.9,0,14.4-3.9,14.4-16.1v-15.1c0-10.9-3.7-15.7-12.2-15.7H1934.9z"/>
	<path class="st0" d="M2076.3,375.8H2052l-4.1-27.7h-29.5l-4.1,27.7h-22l24.4-152.7h35.1L2076.3,375.8z M2021.5,327.3h23.1
		l-11.3-77.2h-0.4L2021.5,327.3z"/>
	<path class="st0" d="M2138,331.5h0.4l16.1-108.4h33.4v152.7h-22.7V266.2h-0.4l-16.1,109.5H2126l-17.5-108h-0.4v108h-20.9V223h33.4
		L2138,331.5z"/>
	<path class="st0" d="M2237.3,259.7c0-24.4,12.9-38.4,36.4-38.4c23.6,0,36.4,14,36.4,38.4v79.4c0,24.4-12.9,38.4-36.4,38.4
		c-23.6,0-36.4-14-36.4-38.4V259.7z M2261.3,340.6c0,10.9,4.8,15.1,12.4,15.1c7.6,0,12.4-4.1,12.4-15.1v-82.5
		c0-10.9-4.8-15.1-12.4-15.1c-7.6,0-12.4,4.1-12.4,15.1V340.6z"/>
	<path class="st0" d="M2348.6,223v117.8c0,10.9,4.8,14.8,12.4,14.8c7.6,0,12.4-3.9,12.4-14.8V223h22.7v116.3
		c0,24.4-12.2,38.4-35.8,38.4c-23.6,0-35.8-14-35.8-38.4V223H2348.6z"/>
	<path class="st0" d="M2405.5,223h74.2v21.8h-25.1v130.9h-24V244.8h-25.1V223z"/>
	<path class="st0" d="M2493.2,341.9l-3.1-55.2V223h24v63.7l-3.1,55.2H2493.2z M2513.7,352.6v23.1h-23.1v-23.1H2513.7z"/>
</g>
<path class="st1" d="M569.9,33.4h-30H30.3v533h2633.6v-533H569.9z M60.3,63.4h479.6v473H60.3V63.4z M2633.9,536.4h-2064v-473h2064
	V536.4z"/>
</svg>
