<?xml version="1.0" encoding="utf-8"?>
<!-- Generator: Adobe Illustrator 22.1.0, SVG Export Plug-In . SVG Version: 6.00 Build 0)  -->
<svg version="1.1" id="Layer_1" xmlns="http://www.w3.org/2000/svg" xmlns:xlink="http://www.w3.org/1999/xlink" x="0px" y="0px"
	 width="800px" height="800px" viewBox="0 0 800 800" style="enable-background:new 0 0 800 800;" xml:space="preserve">
<style type="text/css">
	.st0{fill:#BCBEC0;}
</style>
<path class="st0" d="M598.5,551.2c0,26.1-21.2,47.3-47.3,47.3H248.8c-26.1,0-47.3-21.2-47.3-47.3V349.4h73.6
	c-1.8,4.5-3.4,9.2-4.8,13.9c-3.4,11.7-5.1,24-5.1,36.7c0,74.3,60.5,134.8,134.7,134.8c74.3,0,134.8-60.5,134.8-134.8
	c0-12.7-1.8-25-5.1-36.7c-1.4-4.7-2.9-9.4-4.8-13.9h73.6V551.2z M324.5,357.7c1.6-2.8,3.3-5.6,5.2-8.2
	c15.8-21.9,41.4-36.2,70.3-36.2c29,0,54.6,14.3,70.4,36.2c1.9,2.6,3.6,5.4,5.2,8.3c7,12.5,11.2,26.9,11.2,42.3
	c0,47.8-39,86.7-86.8,86.7c-47.8,0-86.7-38.9-86.7-86.7C313.2,384.7,317.3,370.2,324.5,357.7z M516.6,210.5l61.9-0.1h0.1
	c5.9-0.1,10.8,4.8,10.8,10.6v62.2c0,5.9-4.8,10.7-10.7,10.7l-61.9,0.2c-5.9,0-10.7-4.8-10.7-10.6l-0.2-62.2
	C505.9,215.4,510.6,210.6,516.6,210.5z M569,153.5H231c-42.8,0-77.5,34.7-77.5,77.6V569c0,42.8,34.7,77.5,77.5,77.5H569
	c42.8,0,77.5-34.7,77.5-77.5V231.1C646.5,188.2,611.8,153.5,569,153.5z"/>
</svg>
