<?xml version="1.0" encoding="utf-8"?>
<!-- Generator: Adobe Illustrator 22.1.0, SVG Export Plug-In . SVG Version: 6.00 Build 0)  -->
<svg version="1.1" id="Layer_1" xmlns="http://www.w3.org/2000/svg" xmlns:xlink="http://www.w3.org/1999/xlink" x="0px" y="0px"
	 viewBox="0 0 371.4 435" style="enable-background:new 0 0 371.4 435;" xml:space="preserve">
<polygon points="35.4,38.1 256.7,38.1 256.7,52.1 276.2,52.1 276.2,4.6 256.7,4.6 256.7,18.6 35.4,18.6 35.4,4.6 15.9,4.6 
	15.9,52.1 35.4,52.1 "/>
<polygon points="359.3,107.2 359.3,87.7 311.8,87.7 311.8,107.2 325.8,107.2 325.8,411.2 311.8,411.2 311.8,431.1 359.3,431.1 
	359.3,411.2 345.3,411.2 345.3,107.2 "/>
<path d="M37.9,108.9h228.5v301H37.9V108.9z M15.9,431.1h272.6V87.7H15.9V431.1z"/>
</svg>
