<?xml version="1.0" encoding="utf-8"?>
<!-- Generator: Adobe Illustrator 22.1.0, SVG Export Plug-In . SVG Version: 6.00 Build 0)  -->
<svg version="1.1" id="Layer_1" xmlns="http://www.w3.org/2000/svg" xmlns:xlink="http://www.w3.org/1999/xlink" x="0px" y="0px"
	 viewBox="0 0 269 355" style="enable-background:new 0 0 269 355;" xml:space="preserve">
<style type="text/css">
	.st0{display:none;}
	.st1{display:inline;}
	.st2{clip-path:url(#SVGID_2_);}
	.st3{clip-path:url(#SVGID_4_);}
	.st4{display:inline;stroke:#1A1718;stroke-miterlimit:10;}
	.st5{fill:none;stroke:#1A1718;stroke-miterlimit:10;}
</style>
<g class="st0">
	<g class="st1">
		<path d="M263.1,347h-20.2c-1.1,0-2-0.9-2-2v-28c0-1.1,0.9-2,2-2h20.2c1.1,0,2,0.9,2,2v28C265.1,346.1,264.2,347,263.1,347z"/>
		<g>
			<g>
				<g>
					<g>
						<defs>
							<polygon id="SVGID_1_" points="258.4,315 265.1,321.7 265.1,347 240.9,347 240.9,315 							"/>
						</defs>
						<clipPath id="SVGID_2_">
							<use xlink:href="#SVGID_1_"  style="overflow:visible;"/>
						</clipPath>
						<g class="st2">
							<rect x="240.5" y="332.7" width="25" height="9.3"/>
							<g>
								<rect x="240.5" y="332.4" width="25" height="0.5"/>
							</g>
							<g>
								<rect x="240.5" y="341.8" width="25" height="0.5"/>
							</g>
						</g>
					</g>
				</g>
			</g>
		</g>
		<g>
			<g>
				<g>
					<defs>
						<path id="SVGID_3_" d="M263.1,347h-20.2c-1.1,0-2-0.9-2-2v-28c0-1.1,0.9-2,2-2h20.2c1.1,0,2,0.9,2,2v28
							C265.1,346.1,264.2,347,263.1,347z"/>
					</defs>
					<clipPath id="SVGID_4_">
						<use xlink:href="#SVGID_3_"  style="overflow:visible;"/>
					</clipPath>
					<polyline class="st3" points="258.3,314.8 265.4,314.8 265.4,321.8 					"/>
				</g>
			</g>
		</g>
		<polygon points="258,315 265.1,322.1 265.1,321.4 258.7,315 		"/>
	</g>
	<path class="st1" d="M246.6,339.8v-4.9h2h0.2c0.7,0,1.1,0.1,1.3,0.3c0.2,0.2,0.3,0.7,0.3,1.3c0,0.7-0.1,1.1-0.3,1.3
		c-0.2,0.2-0.7,0.3-1.3,0.3h-0.2h-1.1v1.6C247.6,339.8,246.6,339.8,246.6,339.8z M247.6,337.5h1.1c0.4,0,0.7,0,0.8-0.1
		s0.2-0.3,0.2-0.7c0-0.4,0-0.7-0.1-0.8c-0.1-0.1-0.3-0.1-0.7-0.1h-1.2L247.6,337.5L247.6,337.5z"/>
	<path class="st1" d="M251.1,339.8v-4.9h2.4c0.7,0,1.2,0.1,1.4,0.5c0.3,0.3,0.4,0.8,0.4,1.6c0,1.2-0.1,2-0.3,2.4s-0.7,0.5-1.5,0.5
		L251.1,339.8L251.1,339.8z M252.1,339h1.3c0.4,0,0.7-0.1,0.9-0.3c0.1-0.2,0.2-0.7,0.2-1.4c0-0.7-0.1-1.2-0.2-1.4
		c-0.1-0.2-0.4-0.3-0.8-0.3h-1.4V339z"/>
	<path class="st1" d="M257,335.7v1.3h2.2v0.8H257v2h-0.9v-4.9h3.3v0.8H257L257,335.7z"/>
</g>
<g class="st0">
	<rect x="223.3" y="291.7" class="st4" width="507.7" height="235.7"/>
</g>
<g class="st0">
	<path class="st1" d="M246.6,339.8v-4.9h2h0.2c0.7,0,1.1,0.1,1.3,0.3c0.2,0.2,0.3,0.7,0.3,1.3c0,0.7-0.1,1.1-0.3,1.3
		c-0.2,0.2-0.7,0.3-1.3,0.3h-0.2h-1.1v1.6C247.6,339.8,246.6,339.8,246.6,339.8z M247.6,337.5h1.1c0.4,0,0.7,0,0.8-0.1
		s0.2-0.3,0.2-0.7c0-0.4,0-0.7-0.1-0.8c-0.1-0.1-0.3-0.1-0.7-0.1h-1.2L247.6,337.5L247.6,337.5z"/>
	<path class="st1" d="M251.1,339.8v-4.9h2.4c0.7,0,1.2,0.1,1.4,0.5c0.3,0.3,0.4,0.8,0.4,1.6c0,1.2-0.1,2-0.3,2.4s-0.7,0.5-1.5,0.5
		L251.1,339.8L251.1,339.8z M252.1,339h1.3c0.4,0,0.7-0.1,0.9-0.3c0.1-0.2,0.2-0.7,0.2-1.4c0-0.7-0.1-1.2-0.2-1.4
		c-0.1-0.2-0.4-0.3-0.8-0.3h-1.4V339z"/>
	<path class="st1" d="M257,335.7v1.3h2.2v0.8H257v2h-0.9v-4.9h3.3v0.8H257L257,335.7z"/>
	<g class="st1">
		<g>
			<g>
				<path d="M263.1,316c0.6,0,1,0.4,1,1v28c0,0.6-0.4,1-1,1h-20.2c-0.6,0-1-0.4-1-1v-28c0-0.6,0.4-1,1-1H263.1 M263.1,315h-20.2
					c-1.1,0-2,0.9-2,2v28c0,1.1,0.9,2,2,2h20.2c1.1,0,2-0.9,2-2v-28C265.1,315.9,264.2,315,263.1,315L263.1,315z"/>
			</g>
		</g>
		<g>
			<line class="st5" x1="241.7" y1="322.3" x2="247.4" y2="322.3"/>
			<line class="st5" x1="241.7" y1="325.5" x2="249.9" y2="325.5"/>
		</g>
	</g>
</g>
<g class="st0">
	<g class="st1">
		<path d="M263.6,315h-21.2c-1.1,0-2,0.9-2,2v4.7h6.3v2h-6.3v2.7h9v2h-9V345c0,1.1,0.9,2,2,2h21.2c1.1,0,2-0.9,2-2v-28
			C265.6,315.9,264.7,315,263.6,315z"/>
	</g>
	<path class="st1" d="M246.6,339.8v-4.9h2h0.2c0.7,0,1.1,0.1,1.3,0.3c0.2,0.2,0.3,0.7,0.3,1.3c0,0.7-0.1,1.1-0.3,1.3
		c-0.2,0.2-0.7,0.3-1.3,0.3h-0.2h-1.1v1.6C247.6,339.8,246.6,339.8,246.6,339.8z M247.6,337.5h1.1c0.4,0,0.7,0,0.8-0.1
		s0.2-0.3,0.2-0.7c0-0.4,0-0.7-0.1-0.8c-0.1-0.1-0.3-0.1-0.7-0.1h-1.2L247.6,337.5L247.6,337.5z"/>
	<path class="st1" d="M251.1,339.8v-4.9h2.4c0.7,0,1.2,0.1,1.4,0.5c0.3,0.3,0.4,0.8,0.4,1.6c0,1.2-0.1,2-0.3,2.4s-0.7,0.5-1.5,0.5
		L251.1,339.8L251.1,339.8z M252.1,339h1.3c0.4,0,0.7-0.1,0.9-0.3c0.1-0.2,0.2-0.7,0.2-1.4c0-0.7-0.1-1.2-0.2-1.4
		c-0.1-0.2-0.4-0.3-0.8-0.3h-1.4V339z"/>
	<path class="st1" d="M257,335.7v1.3h2.2v0.8H257v2h-0.9v-4.9h3.3v0.8H257L257,335.7z"/>
</g>
<g class="st0">
	<g class="st1">
		<path d="M246.5,334.8v5.2h1.2v-1.6h1h0.2c0.7,0,1.2-0.1,1.4-0.4c0.2-0.2,0.4-0.7,0.4-1.4c0-0.7-0.1-1.2-0.4-1.4
			c-0.3-0.3-0.7-0.4-1.4-0.4C248.9,334.8,246.5,334.8,246.5,334.8z M249.5,336.6c0,0.4-0.1,0.6-0.1,0.6c-0.1,0-0.2,0.1-0.7,0.1h-0.9
			v-1.5h1c0.5,0,0.6,0.1,0.6,0.1C249.4,336,249.5,336.1,249.5,336.6z"/>
		<path d="M255.2,339.4c0.2-0.4,0.4-1.2,0.4-2.4c0-0.8-0.1-1.3-0.4-1.7c-0.3-0.3-0.8-0.5-1.5-0.5H251v5.2h2.6
			C254.4,340,255,339.8,255.2,339.4z M253.5,335.8c0.4,0,0.6,0.1,0.7,0.2c0.1,0.1,0.2,0.4,0.2,1.3c0,0.8-0.1,1.2-0.2,1.3
			c-0.1,0.2-0.4,0.3-0.8,0.3h-1.2v-3.1H253.5L253.5,335.8z"/>
		<polygon points="257.2,337.9 259.4,337.9 259.4,336.9 257.2,336.9 257.2,335.8 259.5,335.8 259.5,334.8 256,334.8 256,340 
			257.2,340 		"/>
		<path d="M242.4,347h21.2c1.1,0,2-0.9,2-2v-28c0-1.1-0.9-2-2-2h-21.2c-1.1,0-2,0.9-2,2v28C240.4,346.1,241.3,347,242.4,347z
			 M263.6,317v28h-21.2v-16.6h7v-2h-7v-2.2h4.3v-2h-4.3V317H263.6z"/>
	</g>
</g>
<g>
	<path d="M243.7,6H27.1C14.2,6,3.7,16.5,3.7,29.4v300.1c0,12.9,10.5,23.4,23.4,23.4h216.5c12.9,0,23.4-10.5,23.4-23.4V29.4
		C267.1,16.5,256.6,6,243.7,6z M243.7,343.6H27.1c-7.5,0-14.1-6.6-14.1-14.1V125.8h91.1v-9.4H13.1V91.5h62.2v-9.4H13.1V29.4
		c0-7.5,6.6-14.1,14.1-14.1h216.5c7.5,0,14.1,6.6,14.1,14.1v300.1C257.7,337.1,251.2,343.6,243.7,343.6z"/>
	<path d="M100.1,188.1c-3.1-2.7-7.3-4.1-12.5-4.1H65v52.7h10.9v-18.9h11c5.7,0,10.1-1.3,13.2-3.9c3.1-2.6,4.6-7,4.6-13.2
		C104.7,195,103.2,190.8,100.1,188.1z M91.7,206.8c-1.4,1.3-3.3,1.9-5.9,1.9h-9.9v-15.5h9.9c2.5,0,4.5,0.6,5.9,1.8
		c1.4,1.2,2.1,3.1,2.1,5.9S93.1,205.5,91.7,206.8z"/>
	<path d="M153.4,191.9c-2.3-3.2-5.3-5.5-9-6.7c-2.2-0.7-4.9-1.1-8.2-1.1h-22.7v52.7h22.7c8,0,13.9-3.3,17.7-9.8
		c2.8-4.9,4.2-10.8,4.2-17.8c0-2.8-0.3-5.7-1-8.7C156.5,197.3,155.3,194.5,153.4,191.9z M145.3,219.9c-2.1,5.1-5.7,7.7-10.9,7.7
		h-10.2v-34.4h10.2c5,0,8.4,1.4,10,4.3c1.7,2.9,2.5,7,2.5,12.4C147,213.7,146.4,217.1,145.3,219.9z"/>
	<polygon points="166.4,236.7 177.4,236.7 177.4,214.6 200.7,214.6 200.7,205.5 177.4,205.5 177.4,193.4 204,193.4 204,184.1 
		166.4,184.1 	"/>
</g>
</svg>
