<?xml version="1.0" encoding="utf-8"?>
<!-- Generator: Adobe Illustrator 22.1.0, SVG Export Plug-In . SVG Version: 6.00 Build 0)  -->
<svg version="1.1" id="Layer_1" xmlns="http://www.w3.org/2000/svg" xmlns:xlink="http://www.w3.org/1999/xlink" x="0px" y="0px"
	 viewBox="0 0 67.8 94.5" style="enable-background:new 0 0 67.8 94.5;" xml:space="preserve">
<style type="text/css">
	.st0{fill:#C2AF74;}
</style>
<title>09</title>
<path class="st0" d="M56.8,10.9C44-1.9,23.4-1.9,10.6,10.9c-11,11-12.7,28.1-4.2,41.1l27.3,41.3l27.3-41.4
	C69.6,39,67.8,21.8,56.8,10.9z M56.1,48.5L33.8,82.3L11.5,48.5C3.4,36.2,6.8,19.8,19,11.6s28.9-4.7,37,7.6
	C61.8,28.1,61.8,39.7,56.1,48.5z"/>
<path class="st0" d="M33.8,17.2c-9,0-16.4,7.3-16.4,16.4S24.8,50,33.8,50s16.4-7.3,16.4-16.4l0,0C50.2,24.5,42.8,17.2,33.8,17.2z
	 M33.8,44c-5.7,0-10.4-4.6-10.4-10.4S28,23.2,33.8,23.2s10.4,4.6,10.4,10.4C44.2,39.3,39.5,44,33.8,44z"/>
</svg>
