<?xml version="1.0" encoding="utf-8"?>
<!-- Generator: Adobe Illustrator 22.1.0, SVG Export Plug-In . SVG Version: 6.00 Build 0)  -->
<svg version="1.1" id="Layer_1" xmlns="http://www.w3.org/2000/svg" xmlns:xlink="http://www.w3.org/1999/xlink" x="0px" y="0px"
	 viewBox="0 0 53 92.5" style="enable-background:new 0 0 53 92.5;" xml:space="preserve">
<style type="text/css">
	.st0{fill:#C2AF74;}
</style>
<g>
	<path class="st0" d="M49.2,21c-0.7-0.6-1.5-1.4-1.7-1.9s0-1.7,0.2-2.7c0.3-1.8,0.7-3.9-0.5-5.6s-3.3-2-5.2-2.2
		c-1-0.1-2.1-0.3-2.6-0.6c-0.4-0.3-0.9-1.3-1.3-2.2c-0.8-1.7-1.7-3.7-3.7-4.3c-1.9-0.6-3.8,0.4-5.4,1.3c-0.9,0.5-1.9,1-2.5,1
		s-1.6-0.6-2.5-1c-1.6-0.9-3.5-1.9-5.4-1.3c-2,0.6-2.9,2.6-3.7,4.3C14.5,6.7,14,7.7,13.6,8C13.1,8.3,12,8.5,11,8.6
		c-1.9,0.2-4,0.5-5.2,2.2S5,14.5,5.3,16.4c0.2,1,0.4,2.1,0.2,2.7c-0.2,0.5-1,1.3-1.7,1.9c-1.4,1.3-3,2.8-3,4.9s1.6,3.6,3,4.9
		c0.7,0.6,1.5,1.4,1.7,1.9s0,1.7-0.2,2.7C5,37.2,4.6,39.3,5.8,41c1.2,1.7,3.3,2,5.2,2.2c0.7,0.1,1.5,0.2,2,0.4L6.2,86.4
		c-0.1,0.7,0.2,1.5,0.8,1.9s1.4,0.4,2,0l8.2-5.2l6.6,7.5c0.4,0.4,0.9,0.6,1.4,0.6c0.2,0,0.3,0,0.5-0.1c0.7-0.2,1.2-0.8,1.3-1.5
		l1.5-9.7l3-2.5l8.3,4.5c0.3,0.2,0.6,0.2,0.9,0.2l0,0c1,0,1.9-0.8,1.9-1.9c0-0.2,0-0.3-0.1-0.5l-3.2-36l0.1-0.1
		c0.5-0.3,1.6-0.5,2.6-0.6c1.9-0.2,4-0.5,5.2-2.2s0.8-3.7,0.5-5.6c-0.2-1-0.4-2.1-0.2-2.7c0.2-0.5,1-1.3,1.7-1.9
		c1.4-1.3,3-2.8,3-4.9C52.2,23.8,50.6,22.3,49.2,21z M19.1,79.4c-0.6-0.7-1.6-0.8-2.4-0.4l-6.1,3.8l5.5-34.6l0.1,0.1
		c0.1,0.1,0.2,0.3,0.3,0.4c0.1,0.1,0.1,0.2,0.2,0.2c0.1,0.1,0.2,0.2,0.3,0.3s0.1,0.1,0.2,0.2c0.1,0.1,0.3,0.2,0.4,0.3
		c0.1,0,0.1,0.1,0.2,0.1c0.2,0.1,0.5,0.2,0.7,0.3l0,0c0.2,0.1,0.4,0.1,0.6,0.1h0.1c0.2,0,0.3,0,0.5,0c0,0,0,0,0.1,0s0.1,0,0.2,0
		c0.1,0,0.2,0,0.3,0s0.2,0,0.3,0s0.2,0,0.3,0c0,0,0,0,0.1,0c1.1-0.2,2.1-0.8,3.1-1.3c0.9-0.5,1.9-1,2.5-1s1.6,0.6,2.5,1
		c0.2,0.1,0.5,0.2,0.7,0.4l-4.6,29.2l0,0l-1,6.5L19.1,79.4z M32.3,73.5c-0.3-0.2-0.6-0.2-0.9-0.2c-0.4,0-0.9,0.1-1.2,0.4l-0.7,0.5
		l3.8-23.8c0.4,0,0.8-0.1,1.1-0.2c0.7-0.2,1.2-0.6,1.7-1L38.6,77L32.3,73.5z M46.6,28.1c-1.1,1-2.2,2.1-2.7,3.5
		c-0.5,1.5-0.2,3,0.1,4.5c0.2,0.9,0.4,2.3,0.2,2.7c-0.3,0.4-1.7,0.6-2.7,0.7c-1.5,0.2-3.1,0.4-4.3,1.3c-0.5,0.4-1,0.9-1.4,1.5l0,0
		c-0.4,0.7-0.8,1.4-1.1,2.1c-0.4,0.9-1,2.2-1.6,2.3c-0.1,0-0.3,0-0.7-0.2l0,0c-0.5-0.2-1-0.5-1.6-0.8c-1.3-0.7-2.8-1.5-4.3-1.5
		c-1.6,0-3,0.8-4.3,1.5c-0.8,0.4-1.6,0.8-2.1,1l0,0c-0.2,0-0.3,0-0.3,0c-0.1,0-0.1-0.1-0.2-0.1c-0.4-0.4-1-1.5-1.3-2.2
		c-0.5-1.1-1-2.2-1.8-3l0,0l0,0l0,0c-0.2-0.2-0.4-0.4-0.7-0.6c-1.2-0.9-2.8-1.1-4.3-1.3c-0.9-0.1-2.4-0.3-2.7-0.7s0-1.8,0.2-2.7
		c0.3-1.5,0.6-3,0.1-4.5c-0.5-1.4-1.6-2.5-2.7-3.5c-0.7-0.7-1.8-1.7-1.8-2.2s1.1-1.5,1.8-2.2c1.1-1,2.2-2.1,2.7-3.5
		c0.5-1.5,0.2-3-0.1-4.5c-0.2-0.9-0.4-2.3-0.2-2.7c0.3-0.4,1.7-0.6,2.7-0.7c1.5-0.2,3.1-0.4,4.3-1.3c1.2-0.9,1.9-2.3,2.5-3.6
		c0.4-0.9,1-2.2,1.5-2.3c0.4-0.1,1.7,0.6,2.5,1c1.3,0.7,2.8,1.5,4.3,1.5c1.6,0,3-0.8,4.3-1.5c0.8-0.4,2.1-1.1,2.5-1
		c0.5,0.1,1.1,1.5,1.5,2.3c0.6,1.4,1.3,2.8,2.5,3.6c1.2,0.9,2.8,1.1,4.3,1.3c0.9,0.1,2.4,0.3,2.7,0.7c0.3,0.4,0,1.8-0.2,2.7
		c-0.3,1.5-0.6,3-0.1,4.5c0.5,1.4,1.6,2.5,2.7,3.5c0.7,0.7,1.8,1.7,1.8,2.2S47.3,27.4,46.6,28.1z"/>
	<path class="st0" d="M26.5,9.8c-8.9,0-16.1,7.2-16.1,16.1C10.4,30,12,34,14.8,37l0,0c1.1,1.2,2.4,2.2,3.8,3l0,0
		c2.4,1.3,5.1,2,7.9,2c2.7,0,5.4-0.7,7.7-2l0,0c1.4-0.8,2.7-1.8,3.9-3l0,0c2.9-3,4.5-7,4.5-11.2C42.7,17,35.4,9.8,26.5,9.8z
		 M35.5,34.5c-0.9,0.9-1.9,1.7-3,2.3l0,0c-3.6,2-8.3,2-12-0.1c-1.1-0.6-2.1-1.4-3-2.3c-2.2-2.3-3.4-5.3-3.4-8.5
		c0-6.8,5.6-12.4,12.4-12.4s12.4,5.6,12.4,12.4C38.9,29.1,37.7,32.2,35.5,34.5z"/>
</g>
</svg>
